<svg width="15" height="14" viewBox="0 0 15 14" fill="none" xmlns="http://www.w3.org/2000/svg">
<path d="M5.37499 0.416668L4.07874 1.83333H1.83332C1.05416 1.83333 0.416656 2.47083 0.416656 3.25V11.75C0.416656 12.5292 1.05416 13.1667 1.83332 13.1667H13.1667C13.9458 13.1667 14.5833 12.5292 14.5833 11.75V3.25C14.5833 2.47083 13.9458 1.83333 13.1667 1.83333H10.9212L9.62499 0.416668H5.37499ZM7.49999 11.0417C5.54499 11.0417 3.95832 9.455 3.95832 7.5C3.95832 5.545 5.54499 3.95833 7.49999 3.95833C9.45499 3.95833 11.0417 5.545 11.0417 7.5C11.0417 9.455 9.45499 11.0417 7.49999 11.0417Z" fill="black"/>
</svg>
