<svg width="500" height="134" viewBox="0 0 500 134" fill="none" xmlns="http://www.w3.org/2000/svg">
<path d="M43.509 51.5692L56.0544 13.8427C56.0544 13.8427 53.9949 13.3143 51.0833 12.3315L39.2383 51.5692H43.509Z" fill="#231815"/>
<path d="M37.5134 51.5694L49.3269 12.4601C42.4555 10.0408 32.463 5.61226 31.3126 0H24.7352C23.5848 5.62264 13.5975 10.0512 6.72607 12.4601L18.5344 51.5694H37.5134ZM16.0582 8.44694L28.042 32.5573L40.0051 8.44694L44.7202 20.5021L28.0265 32.5729L11.3328 20.5177L16.0582 8.44694Z" fill="#231815"/>
<path d="M16.8161 51.5692L4.98721 12.3315C2.06927 13.3038 0 13.8427 0 13.8427L12.5728 51.5692H16.8161Z" fill="#231815"/>
<path d="M12.4307 52.6904L0 82.6177L8.11831 88.5648L16.8161 52.6904H12.4307Z" fill="#231815"/>
<path d="M18.7683 52.6904L10.0903 88.7741L28.0275 102.018L45.9647 88.7741L37.2867 52.6904H18.7683Z" fill="#231815"/>
<path d="M39.2383 52.6904L47.9361 88.5648L56.0544 82.6177L43.6237 52.6904H39.2383Z" fill="#231815"/>
<path d="M28.0271 114.35C28.0271 114.35 24.7116 126.167 11.2109 133.408H44.8432C31.2126 126.167 28.0271 114.35 28.0271 114.35Z" fill="#231815"/>
<path d="M162.376 22.6465V29.6128H146.084V42.9533H160.556V49.1708H146.084V61.1355C145.994 62.2614 146.302 63.3831 146.954 64.3052C147.292 64.6793 147.711 64.9711 148.179 65.1583C148.647 65.3455 149.151 65.423 149.654 65.3849H162.35V72.3513H144.281C140.902 72.3513 138.412 71.4515 136.81 69.6518C135.207 67.8522 134.415 65.2601 134.432 61.8756V22.6465H162.376Z" fill="#231815"/>
<path d="M191.034 54.647H202.72V61.8398C202.785 63.2259 202.574 64.6113 202.099 65.915C201.624 67.2187 200.893 68.4147 199.951 69.4331C198.099 71.3488 195.414 72.3067 191.896 72.3067H180.584C177.06 72.3067 174.375 71.3488 172.529 69.4331C171.587 68.4147 170.856 67.2187 170.381 65.915C169.906 64.6113 169.695 63.2259 169.76 61.8398V33.1036C169.695 31.7175 169.906 30.3321 170.381 29.0284C170.856 27.7247 171.587 26.5288 172.529 25.5104C174.375 23.5946 177.06 22.6367 180.584 22.6367H191.904C195.422 22.6367 198.107 23.5946 199.959 25.5104C200.902 26.5288 201.632 27.7247 202.108 29.0284C202.583 30.3321 202.794 31.7175 202.728 33.1036V38.8508H191.034V34.1834C191.088 32.7237 190.642 31.2892 189.771 30.1168C189.338 29.6096 188.8 29.2023 188.194 28.923C187.588 28.6437 186.929 28.4991 186.262 28.4991C185.595 28.4991 184.935 28.6437 184.33 28.923C183.724 29.2023 183.186 29.6096 182.752 30.1168C181.884 31.2903 181.442 32.7247 181.499 34.1834V60.3943C181.462 61.9043 181.901 63.3877 182.752 64.635C183.157 65.1858 183.685 65.6336 184.295 65.9423C184.905 66.2509 185.578 66.4118 186.262 66.4118C186.945 66.4118 187.619 66.2509 188.228 65.9423C188.838 65.6336 189.367 65.1858 189.771 64.635C190.625 63.3884 191.067 61.9052 191.034 60.3943V54.647Z" fill="#231815"/>
<path d="M222.713 49.1453V72.3432H210.984V22.6123H222.713V42.9279H231.848V22.6123H243.569V72.3432H231.848V49.1453H222.713Z" fill="#231815"/>
<path d="M256.656 22.6123C260.54 22.6123 263.681 24.8183 266.078 29.2303L277.007 49.0408V22.6123H286.324V72.3432H283.877C279.053 72.3432 275.529 70.1256 273.306 65.6903L261.367 43.3894V72.3432H252.05V22.6123H256.656Z" fill="#231815"/>
<path d="M316.427 22.6465C319.945 22.6465 322.63 23.6043 324.482 25.5201C325.425 26.5385 326.155 27.7344 326.631 29.0382C327.106 30.3419 327.317 31.7273 327.251 33.1134V61.8495C327.317 63.2356 327.106 64.621 326.631 65.9247C326.155 67.2284 325.425 68.4244 324.482 69.4428C322.63 71.3585 319.945 72.3164 316.427 72.3164H305.194C301.665 72.3164 298.982 71.3585 297.148 69.4428C296.204 68.4251 295.472 67.2295 294.995 65.9257C294.518 64.622 294.306 63.2362 294.37 61.8495V33.1134C294.306 31.7267 294.518 30.341 294.995 29.0372C295.472 27.7335 296.204 26.5378 297.148 25.5201C298.988 23.6043 301.67 22.6465 305.194 22.6465H316.427ZM310.819 66.4386C311.505 66.4629 312.185 66.3107 312.795 65.9966C313.405 65.6824 313.924 65.217 314.303 64.6448C315.157 63.3982 315.599 61.9149 315.565 60.404V34.1932C315.619 32.7335 315.174 31.2989 314.303 30.1266C313.869 29.6194 313.331 29.212 312.725 28.9328C312.12 28.6535 311.46 28.5089 310.793 28.5089C310.126 28.5089 309.467 28.6535 308.861 28.9328C308.255 29.212 307.717 29.6194 307.284 30.1266C306.419 31.302 305.978 32.735 306.03 34.1932V60.404C305.998 61.9134 306.436 63.3954 307.284 64.6448C307.674 65.2245 308.206 65.694 308.83 66.0082C309.454 66.3224 310.148 66.4706 310.846 66.4386H310.819Z" fill="#231815"/>
<path d="M381.293 72.3432H369.546V43.3894L357.215 72.3432L344.876 43.3894V72.3432H335.585V22.6123H339.477C344.075 22.6123 347.454 24.8183 349.613 29.2303L358.67 48.945L367.256 29.2477C369.424 24.8328 372.794 22.6297 377.4 22.6297H381.293V72.3432Z" fill="#231815"/>
<path d="M401.426 54.2918V72.3084H389.74V22.6733H411.823C415.341 22.6733 418.026 23.6312 419.878 25.5469C420.82 26.5653 421.551 27.7613 422.026 29.065C422.502 30.3687 422.713 31.7541 422.647 33.1402V72.3258H410.961V54.2918H401.426ZM410.961 48.0743V34.5509C410.993 33.0374 410.552 31.5518 409.698 30.3015C409.318 29.731 408.799 29.2669 408.189 28.953C407.58 28.6391 406.9 28.4859 406.215 28.5077H401.426V48.0743H410.961Z" fill="#231815"/>
<path d="M463.714 33.1127V61.8488C463.78 63.235 463.569 64.6203 463.093 65.924C462.618 67.2277 461.887 68.4237 460.945 69.4421C459.093 71.3578 456.408 72.3157 452.89 72.3157H430.807V22.6807H452.89C456.408 22.6807 459.093 23.6385 460.945 25.5543C461.883 26.5685 462.611 27.7587 463.086 29.0561C463.562 30.3535 463.775 31.7323 463.714 33.1127ZM452.028 60.4033V34.1925C452.082 32.7328 451.637 31.2983 450.765 30.1259C450.357 29.596 449.828 29.1722 449.222 28.8903C448.615 28.6083 447.95 28.4766 447.282 28.5063H442.493V66.4379H447.282C447.968 66.4622 448.648 66.31 449.258 65.9959C449.868 65.6818 450.387 65.2163 450.765 64.6441C451.62 63.3975 452.061 61.9142 452.028 60.4033V60.4033Z" fill="#231815"/>
<path d="M500 22.6465V29.6128H483.707V42.9533H498.188V49.1708H483.707V61.1355C483.617 62.2614 483.926 63.3831 484.578 64.3052C484.914 64.6791 485.331 64.971 485.798 65.1582C486.264 65.3454 486.767 65.423 487.269 65.3849H499.974V72.3513H481.878C478.5 72.3513 476.006 71.4515 474.398 69.6518C472.796 67.8493 471.986 65.2978 471.986 61.8843V22.6465H500Z" fill="#231815"/>
<path d="M119.341 68.938H97.998V72.3428H119.341V68.938Z" fill="#231815"/>
<path d="M102.318 34.2554L100.916 66.7359H116.424L115.022 34.2554H102.318ZM110.947 40.1071C110.947 40.5587 110.813 41.0001 110.562 41.3755C110.311 41.7509 109.954 42.0433 109.537 42.2157C109.119 42.3881 108.66 42.4328 108.217 42.344C107.774 42.2553 107.368 42.0371 107.049 41.7172C106.731 41.3973 106.514 40.99 106.427 40.5468C106.34 40.1037 106.386 39.6447 106.56 39.2279C106.734 38.8112 107.028 38.4555 107.404 38.2059C107.781 37.9562 108.223 37.8239 108.674 37.8256C109.274 37.8325 109.847 38.0762 110.268 38.5036C110.688 38.9309 110.923 39.5073 110.921 40.1071H110.947Z" fill="#231815"/>
<path d="M81.5671 33.6894C80.4619 33.6644 79.3843 33.3394 78.4497 32.749L79.6078 39.4889C80.1779 39.072 80.8612 38.8381 81.5671 38.8184C82.2731 38.8381 82.9564 39.072 83.5264 39.4889L84.6933 32.749C83.755 33.3385 82.6749 33.6634 81.5671 33.6894V33.6894Z" fill="#231815"/>
<path d="M77.9973 42.3879C77.9973 42.266 78.0583 42.1615 78.067 42.0483L73.9917 45.0961V51.7925L77.8841 55.5107L77.8406 47.0205L79.9044 45.488C79.3365 45.1912 78.8595 44.7464 78.5237 44.2007C78.188 43.655 78.0061 43.0286 77.9973 42.3879V42.3879Z" fill="#231815"/>
<path d="M85.7129 22.6123C86.4041 23.1893 86.9602 23.9111 87.3418 24.7266C87.7234 25.5422 87.9212 26.4316 87.9212 27.332C87.9212 28.2324 87.7234 29.1218 87.3418 29.9373C86.9602 30.7529 86.4041 31.4747 85.7129 32.0517H96.859V22.6123H85.7129Z" fill="#231815"/>
<path d="M80.5571 31.8236C80.8843 31.9331 81.2234 32.0032 81.5672 32.0326C82.8025 31.9955 83.9771 31.4881 84.851 30.6142C85.7249 29.7403 86.2323 28.5657 86.2695 27.3303C86.2695 26.7132 86.1478 26.1022 85.9113 25.5322C85.6749 24.9622 85.3284 24.4443 84.8917 24.0084C84.4549 23.5724 83.9364 23.2269 83.366 22.9915C82.7955 22.7561 82.1843 22.6356 81.5672 22.6367C80.3239 22.639 79.1323 23.1346 78.254 24.0146C77.3756 24.8945 76.8823 26.087 76.8823 27.3303C76.8958 28.4356 77.3069 29.499 78.0405 30.3258C78.6907 31.0896 79.5757 31.6163 80.5571 31.8236V31.8236ZM80.679 25.8761C80.93 25.6763 81.2314 25.5498 81.5498 25.5104C81.7999 25.4931 82.051 25.5274 82.2873 25.6113C82.5237 25.6951 82.7402 25.8267 82.9235 25.9978C83.1069 26.1689 83.2531 26.3758 83.353 26.6058C83.453 26.8358 83.5045 27.0839 83.5045 27.3347C83.5045 27.5854 83.453 27.8335 83.353 28.0635C83.2531 28.2935 83.1069 28.5005 82.9235 28.6716C82.7402 28.8427 82.5237 28.9742 82.2873 29.0581C82.051 29.1419 81.7999 29.1763 81.5498 29.159C81.1553 29.1731 80.7677 29.0527 80.4505 28.8176C80.1334 28.5825 79.9056 28.2466 79.8044 27.865C79.7031 27.4835 79.7346 27.0788 79.8935 26.7175C80.0524 26.3561 80.3294 26.0594 80.679 25.8761V25.8761Z" fill="#231815"/>
<path d="M85.1371 42.3879C85.1301 43.0279 84.9499 43.654 84.6156 44.1999C84.2814 44.7457 83.8056 45.1908 83.2388 45.488L85.2938 47.0205V55.4933L89.195 51.7925V45.0961L85.111 42.0483C85.0761 42.1615 85.1371 42.266 85.1371 42.3879Z" fill="#231815"/>
<path d="M83.239 41.1518C83.0582 40.8698 82.8116 40.636 82.5203 40.4706C82.229 40.3052 81.9018 40.2133 81.567 40.2026C81.2329 40.2162 80.9068 40.3094 80.616 40.4745C80.3252 40.6396 80.078 40.8718 79.8951 41.1518V41.1518C79.5957 41.4948 79.4155 41.9256 79.3813 42.3796C79.3932 42.8955 79.5924 43.3893 79.9417 43.7691C80.291 44.1488 80.7666 44.3885 81.2797 44.4434C81.3929 44.4434 81.4538 44.5652 81.567 44.5652C81.6802 44.5652 81.7499 44.4608 81.8544 44.4434C82.3675 44.3885 82.843 44.1488 83.1923 43.7691C83.5416 43.3893 83.7408 42.8955 83.7527 42.3796C83.7192 41.9254 83.5389 41.4945 83.239 41.1518V41.1518Z" fill="#231815"/>
<path d="M126.3 22.6123H99.4009V32.0604H126.3V22.6123Z" fill="#231815"/>
<path d="M140.162 106.217C140.11 106.966 139.918 107.228 139.143 107.593C137.984 108.132 136.711 108.382 135.434 108.325C134.441 108.388 133.447 108.232 132.521 107.868C131.596 107.504 130.762 106.94 130.078 106.217C129.451 105.576 128.963 104.812 128.645 103.972C128.328 103.133 128.187 102.237 128.232 101.341C128.188 100.438 128.336 99.5351 128.667 98.6931C128.997 97.851 129.502 97.0886 130.148 96.4559C130.903 95.7209 131.799 95.1473 132.783 94.77C133.766 94.3927 134.817 94.2197 135.869 94.2615C136.961 94.2523 138.045 94.4351 139.074 94.8014C139.683 95.0452 139.884 95.2107 139.945 95.916L140.101 97.2919C140.171 97.8318 140.014 98.0233 139.788 98.0233C139.222 98.0233 139.091 97.2135 137.933 95.9857C137.65 95.6758 137.299 95.4358 136.908 95.2846C136.517 95.1335 136.095 95.0754 135.678 95.1149C134.984 95.1519 134.308 95.3497 133.703 95.6928C133.099 96.0358 132.582 96.5147 132.194 97.0916C131.388 98.3621 130.981 99.8455 131.028 101.35C130.968 102.808 131.327 104.252 132.064 105.512C132.411 106.13 132.916 106.645 133.529 107.001C134.141 107.358 134.838 107.545 135.547 107.541C135.976 107.572 136.406 107.511 136.809 107.361C137.212 107.21 137.577 106.975 137.881 106.67C138.847 105.704 139.439 104.136 139.701 104.136C140.136 104.136 140.18 104.241 140.162 104.859V106.217Z" fill="#231815"/>
<path d="M148.104 100.713C147.233 100.713 147.085 99.7198 146.484 99.7198C146.31 99.7347 146.143 99.7947 146 99.894C145.856 99.9932 145.741 100.128 145.666 100.286C145.437 100.799 145.344 101.363 145.396 101.923V106.347C145.396 107.217 145.526 107.383 146.267 107.383C146.519 107.383 146.676 107.487 146.676 107.722C146.676 107.958 146.519 108.106 146.267 108.106C145.544 108.106 144.751 108.019 144.055 108.019C143.358 108.019 142.723 108.106 142.087 108.106C141.8 108.106 141.66 108.018 141.66 107.722C141.66 107.426 141.8 107.383 142.087 107.383C142.836 107.383 143.019 107.165 143.019 106.347V100.73C143.019 100.434 142.905 100.26 142.67 100.26H142.426C142.183 100.26 142.017 100.155 142.017 99.9375C142.017 99.7198 142.157 99.6154 142.426 99.5718C143.098 99.4328 143.717 99.1068 144.212 98.6313C144.309 98.5164 144.431 98.4241 144.567 98.361C144.704 98.2978 144.853 98.2653 145.004 98.2656C145.344 98.2656 145.431 98.5617 145.431 99.1364C145.431 99.3106 145.544 99.3541 145.631 99.2844C146.174 98.7609 146.889 98.4516 147.643 98.4136C148.844 98.4136 149.288 98.849 149.288 99.5979C149.302 99.7538 149.28 99.9108 149.224 100.057C149.168 100.203 149.08 100.335 148.966 100.442C148.852 100.549 148.715 100.629 148.566 100.676C148.417 100.723 148.259 100.735 148.104 100.713V100.713Z" fill="#231815"/>
<path d="M158.935 102.751H153.24C153.165 102.746 153.09 102.77 153.031 102.819C152.973 102.867 152.936 102.936 152.927 103.012C152.874 103.58 152.937 104.154 153.112 104.697C153.287 105.24 153.571 105.742 153.946 106.173C154.234 106.456 154.576 106.678 154.951 106.828C155.326 106.977 155.728 107.051 156.131 107.044C157.002 107.05 157.854 106.795 158.578 106.312C158.828 106.094 159.127 105.938 159.449 105.859C159.667 105.859 159.736 105.938 159.736 106.094C159.736 106.417 159.414 106.809 158.77 107.296C157.865 107.933 156.776 108.257 155.67 108.219C154.303 108.285 152.963 107.823 151.925 106.93C151.414 106.463 151.008 105.892 150.734 105.256C150.461 104.619 150.327 103.931 150.341 103.238C150.314 102.555 150.433 101.874 150.689 101.241C150.946 100.607 151.335 100.035 151.83 99.5635C152.866 98.6483 154.22 98.1761 155.6 98.2486C156.767 98.1752 157.917 98.5594 158.805 99.3197C159.147 99.6288 159.417 100.008 159.597 100.433C159.778 100.857 159.864 101.315 159.85 101.775C159.865 101.902 159.853 102.03 159.813 102.152C159.774 102.273 159.708 102.384 159.621 102.477C159.533 102.57 159.427 102.643 159.308 102.69C159.19 102.737 159.063 102.758 158.935 102.751ZM156.811 99.7028C156.654 99.4793 156.443 99.2991 156.198 99.1788C155.953 99.0585 155.681 99.0021 155.409 99.0149C155.094 99.0124 154.782 99.0807 154.497 99.2148C154.213 99.349 153.961 99.5456 153.763 99.7899C153.346 100.317 153.086 100.951 153.014 101.619C153.014 101.784 153.084 101.923 153.336 101.923H156.48C157.02 101.923 157.22 101.767 157.22 101.357C157.251 100.777 157.108 100.202 156.811 99.7028Z" fill="#231815"/>
<path d="M170.431 107.636C170.006 107.968 169.482 108.149 168.942 108.15C168.645 108.127 168.363 108.014 168.132 107.826C167.902 107.637 167.735 107.383 167.654 107.096C167.654 106.966 167.566 106.966 167.453 107.096C167.035 107.507 166.535 107.826 165.986 108.033C165.438 108.239 164.852 108.33 164.266 108.298C162.734 108.298 161.654 107.627 161.654 106.191C161.654 104.449 163.056 103.7 164.832 102.969L166.783 102.167C167.157 102.019 167.253 101.636 167.253 101.227V100.469C167.253 99.7641 167.079 99.0065 166.208 99.0065C165.337 99.0065 164.763 99.4854 164.406 100.539C164.304 100.95 164.044 101.303 163.683 101.523C163.354 101.724 162.979 101.835 162.594 101.845C162.054 101.845 161.723 101.68 161.723 101.14C161.783 100.81 161.914 100.496 162.106 100.221C162.299 99.946 162.548 99.7158 162.838 99.5464C163.945 98.7201 165.297 98.2879 166.678 98.3186C167.109 98.2664 167.546 98.3045 167.961 98.4304C168.377 98.5563 168.761 98.7674 169.09 99.05C169.302 99.3096 169.46 99.609 169.554 99.9306C169.648 100.252 169.677 100.589 169.639 100.922V106.147C169.639 106.791 169.726 106.966 169.935 106.966C170.336 106.966 170.675 106.53 170.806 106.53C170.936 106.53 171.076 106.617 171.076 106.791C171.076 106.966 170.91 107.288 170.431 107.636ZM167.227 103.404C167.227 103.16 167.131 103.038 166.887 103.143L165.372 103.77C164.998 103.936 164.682 104.21 164.466 104.558C164.25 104.906 164.144 105.311 164.162 105.72C164.15 105.887 164.172 106.055 164.225 106.213C164.279 106.371 164.364 106.517 164.476 106.642C164.587 106.767 164.722 106.869 164.873 106.941C165.024 107.013 165.188 107.054 165.355 107.061C165.634 107.074 165.912 107.024 166.17 106.916C166.428 106.807 166.658 106.643 166.844 106.434C167.123 106.089 167.26 105.65 167.227 105.207V103.404Z" fill="#231815"/>
<path d="M177.205 107.566C176.98 107.798 176.709 107.982 176.409 108.105C176.109 108.228 175.788 108.287 175.464 108.28C175.087 108.303 174.71 108.244 174.358 108.107C174.006 107.97 173.688 107.759 173.426 107.487C172.94 106.784 172.737 105.922 172.86 105.075V99.7461C172.86 99.4675 172.703 99.3368 172.425 99.3368C172.146 99.3368 171.885 99.2758 171.885 98.9885C171.885 98.7011 172.207 98.5879 172.564 98.4573C172.969 98.2799 173.329 98.0143 173.619 97.6799C173.908 97.3454 174.119 96.9506 174.236 96.5242C174.267 96.3932 174.339 96.2751 174.44 96.1862C174.542 96.0974 174.668 96.042 174.802 96.0278C175.168 96.0278 175.298 96.4197 175.298 96.8986V98.1526C175.298 98.3616 175.411 98.4748 175.638 98.4748H176.988C177.31 98.4748 177.449 98.5967 177.449 98.9189C177.449 99.2411 177.31 99.3716 176.988 99.3716H175.62C175.368 99.3716 175.281 99.5023 175.281 99.7374V106.007C175.281 106.878 175.481 107.13 176.021 107.13C176.796 107.13 176.996 106.591 177.292 106.53C177.588 106.469 177.719 106.591 177.719 106.791C177.649 107.103 177.466 107.379 177.205 107.566Z" fill="#231815"/>
<path d="M187.376 102.751H181.681C181.606 102.746 181.531 102.77 181.472 102.819C181.414 102.867 181.377 102.936 181.368 103.012C181.315 103.58 181.378 104.154 181.553 104.697C181.728 105.24 182.012 105.742 182.387 106.173C182.675 106.456 183.017 106.679 183.392 106.828C183.767 106.978 184.168 107.051 184.572 107.044C185.442 107.047 186.294 106.792 187.019 106.312C187.268 106.092 187.567 105.937 187.89 105.859C188.108 105.859 188.177 105.938 188.177 106.094C188.177 106.417 187.855 106.809 187.202 107.296C186.301 107.934 185.215 108.258 184.111 108.219C182.744 108.285 181.404 107.823 180.366 106.93C179.853 106.464 179.445 105.893 179.171 105.257C178.896 104.62 178.76 103.932 178.773 103.238C178.747 102.554 178.867 101.873 179.126 101.239C179.384 100.606 179.774 100.034 180.271 99.5635C181.307 98.6483 182.661 98.1761 184.041 98.2486C185.208 98.1752 186.358 98.5594 187.246 99.3197C187.588 99.6288 187.858 100.008 188.038 100.433C188.219 100.857 188.305 101.315 188.291 101.775C188.306 101.902 188.294 102.03 188.254 102.152C188.215 102.273 188.149 102.384 188.062 102.477C187.974 102.57 187.868 102.643 187.749 102.69C187.631 102.737 187.504 102.758 187.376 102.751ZM185.252 99.7028C185.094 99.4799 184.883 99.3001 184.638 99.1799C184.394 99.0597 184.122 99.003 183.85 99.0149C183.535 99.0117 183.223 99.0798 182.938 99.214C182.653 99.3482 182.402 99.5451 182.204 99.7899C181.787 100.317 181.527 100.951 181.455 101.619C181.455 101.784 181.525 101.923 181.777 101.923H184.938C185.478 101.923 185.678 101.767 185.678 101.357C185.704 100.776 185.555 100.2 185.252 99.7028Z" fill="#231815"/>
<path d="M206.307 99.1885C206.189 99.1855 206.072 99.2063 205.963 99.2497C205.854 99.2931 205.755 99.3582 205.671 99.441C205.378 99.7344 205.147 100.084 204.992 100.469L200.333 111.11C200.221 111.452 199.998 111.747 199.701 111.95C199.403 112.154 199.047 112.253 198.687 112.233C197.669 112.233 197.259 112.041 197.259 111.205C197.259 110.535 197.721 110.169 198.687 110.169C199.227 110.169 199.558 110.082 199.724 109.699L200.133 108.828C200.246 108.593 200.229 108.253 199.976 107.687L196.745 100.233C196.423 99.4759 196.206 99.2233 195.727 99.2233C195.413 99.2233 195.317 99.1101 195.317 98.8576C195.317 98.6051 195.413 98.4745 195.727 98.4745C196.388 98.4745 196.928 98.5354 197.695 98.5354C198.618 98.5354 199.166 98.4745 199.933 98.4745C200.246 98.4745 200.359 98.5354 200.359 98.8576C200.359 99.1798 200.229 99.2233 199.933 99.2233C199.637 99.2233 199.523 99.2233 199.428 99.3888C199.332 99.5542 199.428 99.65 199.48 99.8939L201.744 105.119L203.956 100.024C204.011 99.9324 204.04 99.8271 204.04 99.7197C204.04 99.6123 204.011 99.507 203.956 99.4149C203.834 99.2669 203.59 99.2059 203.163 99.2059C202.867 99.2059 202.71 99.0927 202.71 98.8402C202.71 98.5877 202.841 98.457 203.163 98.457C203.66 98.457 204.173 98.518 204.809 98.518C205.445 98.518 205.828 98.457 206.35 98.457C206.681 98.457 206.794 98.5354 206.794 98.8402C206.794 99.145 206.707 99.1885 206.307 99.1885Z" fill="#231815"/>
<path d="M216.722 106.817C215.608 107.765 214.19 108.28 212.727 108.269C211.264 108.258 209.855 107.721 208.755 106.756C207.855 105.829 207.352 104.587 207.352 103.295C207.352 102.003 207.855 100.761 208.755 99.8336C209.849 98.8593 211.26 98.3153 212.726 98.3025C214.191 98.2897 215.611 98.8089 216.722 99.7639C217.188 100.225 217.558 100.775 217.811 101.38C218.063 101.985 218.193 102.635 218.193 103.291C218.193 103.946 218.063 104.596 217.811 105.201C217.558 105.807 217.188 106.356 216.722 106.817V106.817ZM214.441 99.703C214.223 99.485 213.964 99.3134 213.678 99.1981C213.392 99.0829 213.086 99.0266 212.778 99.0325C212.456 99.0248 212.136 99.0817 211.837 99.1998C211.538 99.318 211.266 99.495 211.036 99.7204C210.285 100.759 209.881 102.009 209.881 103.291C209.881 104.573 210.285 105.822 211.036 106.861C211.262 107.092 211.533 107.272 211.833 107.391C212.134 107.51 212.455 107.563 212.778 107.549C213.409 107.549 214.016 107.302 214.467 106.861C215.309 105.873 215.731 104.594 215.643 103.299C215.691 102.65 215.61 101.998 215.404 101.38C215.197 100.763 214.87 100.193 214.441 99.703V99.703Z" fill="#231815"/>
<path d="M230.159 107.331C229.602 107.541 229.066 107.8 228.556 108.106C227.686 108.646 227.294 108.437 227.294 107.853V107.566C227.294 107.505 227.294 107.383 227.154 107.487C226.309 108.085 225.276 108.357 224.246 108.254C223.69 108.265 223.139 108.147 222.638 107.908C222.136 107.669 221.696 107.316 221.355 106.878C220.815 106.19 220.632 105.424 220.632 103.726V99.9812C220.632 99.3542 220.475 99.1888 219.909 99.1888C219.613 99.1888 219.457 99.1278 219.457 98.8492C219.457 98.5705 219.587 98.4399 219.909 98.4399C220.232 98.4399 220.702 98.4399 221.059 98.4399C221.416 98.4399 222.008 98.4399 222.409 98.4399C222.809 98.4399 223.053 98.6489 223.053 99.1278V104.535C222.958 105.246 223.132 105.967 223.541 106.556C223.749 106.758 223.998 106.913 224.272 107.011C224.545 107.108 224.836 107.146 225.125 107.122C225.461 107.138 225.796 107.081 226.107 106.954C226.418 106.828 226.698 106.636 226.928 106.39C227.198 105.926 227.325 105.393 227.294 104.858V99.9812C227.294 99.3542 227.137 99.1888 226.571 99.1888C226.275 99.1888 226.118 99.1278 226.118 98.8492C226.118 98.5705 226.257 98.4399 226.571 98.4399C226.884 98.4399 227.363 98.4399 227.72 98.4399C228.077 98.4399 228.67 98.4399 229.079 98.4399C229.488 98.4399 229.714 98.6489 229.714 99.1278V105.955C229.714 106.39 229.845 106.556 230.115 106.556H230.359C230.611 106.556 230.838 106.643 230.838 106.843C230.838 107.043 230.568 107.2 230.159 107.331Z" fill="#231815"/>
<path d="M238.465 100.713C237.595 100.713 237.455 99.7198 236.846 99.7198C236.672 99.7335 236.506 99.7932 236.364 99.8927C236.221 99.9922 236.108 100.128 236.036 100.286C235.795 100.796 235.699 101.362 235.757 101.923V106.347C235.757 107.217 235.896 107.383 236.628 107.383C236.88 107.383 237.037 107.487 237.037 107.722C237.037 107.958 236.88 108.106 236.628 108.106C235.905 108.106 235.121 108.019 234.416 108.019C233.711 108.019 233.084 108.106 232.457 108.106C232.161 108.106 232.021 108.018 232.021 107.722C232.021 107.426 232.161 107.383 232.457 107.383C233.197 107.383 233.38 107.165 233.38 106.347V100.73C233.38 100.434 233.267 100.26 233.04 100.26H232.788C232.544 100.26 232.387 100.155 232.387 99.9375C232.387 99.7198 232.518 99.6154 232.788 99.5718C233.444 99.4252 234.047 99.0997 234.529 98.6313C234.627 98.5169 234.749 98.4249 234.886 98.3618C235.022 98.2986 235.171 98.2659 235.322 98.2656C235.661 98.2656 235.748 98.5617 235.748 99.1364C235.748 99.3106 235.862 99.3541 235.957 99.2844C236.499 98.7575 237.214 98.4477 237.969 98.4136C239.162 98.4136 239.615 98.849 239.615 99.5979C239.626 99.7501 239.603 99.9029 239.549 100.045C239.494 100.188 239.41 100.317 239.3 100.423C239.19 100.53 239.059 100.61 238.915 100.66C238.771 100.71 238.617 100.728 238.465 100.713V100.713Z" fill="#231815"/>
<path d="M255.994 106.818C254.879 107.768 253.46 108.284 251.995 108.273C250.53 108.262 249.118 107.724 248.018 106.757C247.118 105.829 246.615 104.588 246.615 103.295C246.615 102.003 247.118 100.762 248.018 99.8339C249.117 98.8658 250.528 98.326 251.993 98.3132C253.458 98.3004 254.878 98.8155 255.994 99.7642C256.458 100.227 256.826 100.777 257.077 101.382C257.329 101.987 257.458 102.636 257.458 103.291C257.458 103.946 257.329 104.595 257.077 105.2C256.826 105.805 256.458 106.355 255.994 106.818V106.818ZM253.73 99.7033C253.511 99.4847 253.25 99.3127 252.963 99.1975C252.675 99.0822 252.368 99.0262 252.058 99.0328C251.424 99.0317 250.815 99.2786 250.36 99.7207C249.61 100.76 249.205 102.009 249.205 103.291C249.205 104.573 249.61 105.822 250.36 106.861C250.585 107.093 250.857 107.273 251.157 107.392C251.458 107.511 251.779 107.564 252.102 107.549C252.734 107.553 253.341 107.305 253.791 106.861C254.566 105.829 254.984 104.573 254.984 103.282C254.984 101.992 254.566 100.736 253.791 99.7033H253.73Z" fill="#231815"/>
<path d="M266.679 102.516L264.511 107.593C264.462 107.774 264.356 107.935 264.209 108.051C264.061 108.167 263.88 108.232 263.693 108.237C263.327 108.237 263.127 108.019 262.926 107.567L259.487 100.025C259.199 99.381 259.043 99.1546 258.816 99.1546H258.477C258.224 99.1546 258.067 99.024 258.067 98.7889C258.067 98.5538 258.207 98.4058 258.477 98.4058C259.853 98.4058 261.437 98.4667 263.579 98.4667C265.722 98.4667 267.533 98.4058 268.891 98.4058C269.205 98.4058 269.335 98.5103 269.335 98.7889C269.335 99.0676 269.205 99.1546 268.891 99.1546C268.125 99.1546 268.021 99.3201 268.212 99.7555L270.467 104.98L272.662 99.6423C272.801 99.3027 272.705 99.1546 272.409 99.1546H272.017C271.748 99.1546 271.591 99.0414 271.591 98.7889C271.591 98.5364 271.721 98.4058 272.017 98.4058C272.496 98.4058 272.888 98.4667 273.446 98.4667C274.003 98.4667 274.212 98.4058 274.726 98.4058C275.039 98.4058 275.187 98.5103 275.187 98.7889C275.187 99.0676 275.039 99.1546 274.726 99.1546C274.229 99.1546 274.003 99.3462 273.803 99.8426L270.589 107.558C270.534 107.734 270.428 107.889 270.283 108.004C270.139 108.119 269.963 108.188 269.78 108.202C269.583 108.192 269.395 108.123 269.24 108.003C269.084 107.883 268.969 107.719 268.909 107.532L266.679 102.516ZM266.044 101.097L265.347 99.5552C265.298 99.4411 265.214 99.3449 265.108 99.2795C265.003 99.2142 264.879 99.1827 264.755 99.1895H262.378C262.047 99.1895 261.977 99.3549 262.064 99.5726L264.459 104.858L266.044 101.097Z" fill="#231815"/>
<path d="M287.605 108.106C286.883 108.106 286.09 108.019 285.394 108.019C284.697 108.019 284.192 108.106 283.565 108.106C283.269 108.106 283.138 108.036 283.138 107.722C283.138 107.409 283.269 107.383 283.565 107.383C284.192 107.383 284.357 107.226 284.357 106.347V101.418C284.391 101.105 284.343 100.789 284.22 100.499C284.096 100.209 283.901 99.9561 283.652 99.7634C283.23 99.4716 282.717 99.3417 282.206 99.3976C281.555 99.4157 280.934 99.6766 280.465 100.129C280.272 100.296 280.12 100.506 280.022 100.742C279.923 100.977 279.881 101.233 279.899 101.488V106.347C279.899 107.217 280.038 107.383 280.691 107.383C280.944 107.383 281.092 107.461 281.092 107.722C281.092 107.984 280.944 108.106 280.691 108.106C279.969 108.106 279.22 108.019 278.523 108.019C277.826 108.019 277.234 108.106 276.607 108.106C276.311 108.106 276.172 108.036 276.172 107.722C276.172 107.409 276.311 107.383 276.607 107.383C277.26 107.383 277.478 107.226 277.478 106.347V100.904C277.478 100.521 277.234 100.303 276.808 100.26C276.381 100.216 276.329 100.155 276.329 99.9201C276.329 99.685 276.468 99.6154 276.738 99.5718C277.449 99.426 278.111 99.1024 278.662 98.6313C278.754 98.5233 278.868 98.4352 278.995 98.3723C279.122 98.3094 279.261 98.2731 279.403 98.2656C279.716 98.2656 279.899 98.4833 279.899 99.1364V99.3541C279.899 99.5022 280.056 99.4586 280.108 99.4151C280.484 99.0369 280.936 98.7433 281.435 98.5541C281.933 98.3648 282.467 98.2843 282.999 98.3179C283.888 98.311 284.762 98.549 285.524 99.0058C285.96 99.2942 286.305 99.6997 286.521 100.176C286.737 100.652 286.814 101.179 286.743 101.697V106.381C286.743 107.304 286.926 107.418 287.614 107.418C287.858 107.418 288.023 107.496 288.023 107.757C288.023 108.018 287.849 108.106 287.605 108.106Z" fill="#231815"/>
<path d="M290.548 111.737C289.756 112.338 289.295 111.868 289.913 111.224C290.428 110.707 290.779 110.05 290.923 109.334C290.676 109.292 290.441 109.2 290.232 109.064C290.022 108.927 289.842 108.75 289.704 108.542C289.588 108.285 289.551 107.999 289.596 107.721C289.642 107.443 289.768 107.185 289.959 106.978C290.15 106.771 290.398 106.625 290.671 106.558C290.945 106.49 291.232 106.505 291.498 106.6C291.713 106.668 291.913 106.779 292.084 106.928C292.255 107.076 292.393 107.258 292.49 107.462C292.587 107.667 292.641 107.889 292.649 108.115C292.656 108.341 292.617 108.566 292.534 108.777C292.216 109.955 291.518 110.996 290.548 111.737V111.737Z" fill="#231815"/>
<path d="M312.169 96.603C312.169 97.169 312.1 97.6828 311.76 97.6828C311.421 97.6828 311.246 97.4738 310.889 96.8643L310.532 96.2198C310.404 95.995 310.221 95.8061 310 95.6707C309.78 95.5352 309.528 95.4576 309.27 95.4449C308.671 95.3518 308.065 95.3081 307.459 95.3142C307.004 95.2906 306.55 95.3648 306.126 95.5319C306.022 95.586 305.934 95.667 305.871 95.7665C305.808 95.866 305.773 95.9804 305.769 96.098V99.9207C305.769 100.199 305.882 100.33 306.126 100.33C306.944 100.351 307.762 100.308 308.573 100.199C308.742 100.165 308.901 100.093 309.038 99.9891C309.175 99.8851 309.287 99.7516 309.366 99.5985C309.792 98.7277 309.949 98.5449 310.123 98.5449C310.297 98.5449 310.463 98.8061 310.463 99.1021C310.463 99.8162 310.402 100.112 310.402 100.731C310.402 101.349 310.463 101.662 310.463 102.368C310.463 102.672 310.419 102.934 310.123 102.934C309.827 102.934 309.792 102.716 309.366 101.88C309.278 101.73 309.16 101.601 309.019 101.5C308.878 101.399 308.717 101.33 308.547 101.297C307.744 101.195 306.935 101.149 306.126 101.157C306.078 101.157 306.03 101.167 305.985 101.186C305.941 101.205 305.901 101.233 305.867 101.268C305.834 101.303 305.808 101.344 305.791 101.39C305.774 101.435 305.767 101.483 305.769 101.532V106.068C305.769 107.079 306.039 107.288 306.866 107.288C307.232 107.288 307.371 107.418 307.371 107.749C307.371 108.08 307.232 108.106 306.866 108.106C306.292 108.106 305.673 108.019 304.507 108.019C303.34 108.019 302.669 108.106 302.086 108.106C301.729 108.106 301.589 108.037 301.589 107.749C301.589 107.462 301.772 107.288 302.086 107.288C302.957 107.288 303.174 107.079 303.174 106.068V96.0544C303.174 95.5754 302.965 95.3142 302.086 95.3142C301.772 95.3142 301.589 95.2097 301.589 94.8875C301.589 94.5654 301.79 94.5044 302.086 94.5044C303.435 94.5044 304.864 94.5827 306.196 94.5827C308.094 94.5827 309.244 94.5044 311.125 94.5044C311.934 94.5044 312.161 94.8004 312.161 95.619L312.169 96.603Z" fill="#231815"/>
<path d="M317.909 108.106C317.186 108.106 316.481 108.019 315.776 108.019C315.07 108.019 314.443 108.106 313.816 108.106C313.52 108.106 313.39 108.019 313.39 107.723C313.39 107.427 313.52 107.383 313.816 107.383C314.469 107.383 314.687 107.14 314.687 106.347V100.948C314.687 100.548 314.348 100.347 313.964 100.33C313.581 100.313 313.485 100.217 313.485 99.9817C313.485 99.7465 313.625 99.6769 313.895 99.642C314.619 99.542 315.292 99.2088 315.81 98.6929C316.022 98.4747 316.308 98.3442 316.612 98.3272C316.925 98.3272 317.099 98.5449 317.099 99.198V106.338C317.099 107.209 317.265 107.375 317.97 107.375C318.214 107.375 318.371 107.479 318.371 107.714C318.371 107.949 318.17 108.106 317.909 108.106ZM315.758 97.4302C315.348 97.435 314.953 97.2791 314.657 96.9959C314.361 96.7127 314.187 96.3247 314.173 95.9151C314.158 95.5967 314.238 95.2809 314.404 95.0085C314.569 94.7362 314.813 94.5197 315.103 94.3873C315.393 94.2548 315.716 94.2123 316.03 94.2654C316.345 94.3184 316.636 94.4646 316.866 94.6849C317.097 94.9052 317.256 95.1896 317.323 95.5012C317.39 95.8129 317.362 96.1375 317.243 96.4331C317.123 96.7288 316.918 96.9818 316.654 97.1596C316.389 97.3373 316.077 97.4316 315.758 97.4302V97.4302Z" fill="#231815"/>
<path d="M331.066 108.106C330.343 108.106 329.551 108.019 328.854 108.019C328.157 108.019 327.652 108.106 327.025 108.106C326.729 108.106 326.599 108.036 326.599 107.722C326.599 107.409 326.729 107.383 327.025 107.383C327.652 107.383 327.818 107.226 327.818 106.347V101.418C327.851 101.105 327.804 100.789 327.68 100.499C327.557 100.209 327.361 99.9561 327.112 99.7634C326.69 99.4723 326.177 99.3425 325.667 99.3976C325.015 99.4157 324.394 99.6766 323.925 100.129C323.732 100.296 323.58 100.506 323.482 100.742C323.384 100.977 323.342 101.233 323.359 101.488V106.347C323.359 107.217 323.499 107.383 324.143 107.383C324.396 107.383 324.552 107.461 324.552 107.722C324.552 107.984 324.396 108.106 324.143 108.106C323.42 108.106 322.68 108.019 321.975 108.019C321.269 108.019 320.695 108.106 320.059 108.106C319.772 108.106 319.632 108.036 319.632 107.722C319.632 107.409 319.772 107.383 320.059 107.383C320.712 107.383 320.93 107.226 320.93 106.347V100.904C320.93 100.521 320.686 100.303 320.259 100.26C319.833 100.216 319.78 100.155 319.78 99.9201C319.78 99.685 319.911 99.6154 320.19 99.5718C320.9 99.426 321.562 99.1024 322.114 98.6313C322.206 98.5233 322.319 98.4352 322.447 98.3723C322.574 98.3094 322.713 98.2731 322.854 98.2656C323.168 98.2656 323.351 98.4833 323.351 99.1364V99.3541C323.351 99.5022 323.507 99.4586 323.56 99.4151C323.935 99.0359 324.387 98.7418 324.886 98.5525C325.385 98.3632 325.918 98.2832 326.451 98.3179C327.339 98.3123 328.213 98.5502 328.976 99.0058C329.412 99.2942 329.757 99.6997 329.973 100.176C330.188 100.652 330.265 101.179 330.195 101.697V106.381C330.195 107.304 330.378 107.418 331.066 107.418C331.31 107.418 331.475 107.496 331.475 107.757C331.475 108.018 331.31 108.106 331.066 108.106Z" fill="#231815"/>
<path d="M344.023 106.843C344.003 106.966 343.947 107.079 343.862 107.17C343.776 107.26 343.666 107.322 343.544 107.348L342.282 107.853C342.054 107.964 341.81 108.038 341.559 108.071C341.376 108.071 341.263 107.932 341.219 107.697L341.132 107.078C341.132 106.904 340.967 106.878 340.853 107.009C340.423 107.438 339.906 107.771 339.337 107.985C338.768 108.2 338.16 108.291 337.553 108.254C336.938 108.271 336.326 108.165 335.753 107.94C335.18 107.716 334.658 107.378 334.218 106.948C333.715 106.465 333.319 105.882 333.054 105.238C332.788 104.593 332.66 103.9 332.677 103.203C332.658 102.554 332.777 101.907 333.026 101.307C333.275 100.706 333.649 100.166 334.122 99.7202C335.186 98.7761 336.567 98.269 337.989 98.3008C338.767 98.2574 339.544 98.4038 340.253 98.7275C340.366 98.7971 340.523 98.771 340.523 98.4314V95.0963C340.523 94.6173 340.366 94.5128 339.843 94.4954C339.591 94.4954 339.408 94.3909 339.408 94.1732C339.408 93.9555 339.591 93.8249 339.817 93.8075C340.462 93.734 341.089 93.5514 341.672 93.2676C341.897 93.0907 342.159 92.9657 342.438 92.9019C342.891 92.9019 342.943 93.1631 342.943 93.7726V106.216C342.943 106.451 343.004 106.626 343.161 106.626C343.318 106.626 343.597 106.173 343.84 106.173C344.084 106.173 344.041 106.373 344.041 106.512L344.023 106.843ZM340.54 100.887C340.54 100.182 340.427 99.7463 340.105 99.5112C339.562 99.1208 338.899 98.9356 338.232 98.9887C337.77 99.0093 337.32 99.1413 336.92 99.3732C336.519 99.6052 336.181 99.9303 335.934 100.321C335.39 101.171 335.128 102.17 335.185 103.177C335.14 103.737 335.207 104.3 335.382 104.834C335.557 105.367 335.836 105.861 336.203 106.286C336.733 106.798 337.435 107.093 338.171 107.113C338.928 107.141 339.666 106.873 340.227 106.364C340.327 106.258 340.406 106.132 340.456 105.994C340.507 105.856 340.53 105.71 340.523 105.563L340.54 100.887Z" fill="#231815"/>
<path d="M361.595 99.1885C361.479 99.1867 361.364 99.2081 361.256 99.2514C361.149 99.2948 361.051 99.3593 360.968 99.441C360.669 99.7311 360.435 100.081 360.28 100.469L355.613 111.11C355.5 111.452 355.278 111.747 354.981 111.95C354.683 112.154 354.327 112.253 353.967 112.233C352.948 112.233 352.539 112.041 352.539 111.205C352.539 110.535 352.992 110.169 353.967 110.169C354.507 110.169 354.838 110.082 355.003 109.699L355.413 108.828C355.466 108.637 355.48 108.438 355.453 108.242C355.426 108.045 355.359 107.857 355.256 107.687L352.017 100.233C351.703 99.4759 351.477 99.2233 350.998 99.2233C350.684 99.2233 350.597 99.1101 350.597 98.8576C350.597 98.6051 350.684 98.4745 350.998 98.4745C351.66 98.4745 352.199 98.5354 352.966 98.5354C353.889 98.5354 354.437 98.4745 355.204 98.4745C355.517 98.4745 355.63 98.5354 355.63 98.8576C355.63 99.1798 355.5 99.2233 355.204 99.2233C354.908 99.2233 354.794 99.2233 354.707 99.3888C354.62 99.5542 354.664 99.65 354.76 99.8939L357.015 105.119L359.227 100.024C359.278 99.929 359.3 99.8212 359.293 99.7134C359.285 99.6056 359.247 99.5022 359.183 99.4149C359.061 99.2669 358.817 99.2059 358.391 99.2059C358.095 99.2059 357.947 99.0927 357.947 98.8402C357.947 98.5877 358.077 98.457 358.391 98.457C358.887 98.457 359.41 98.518 360.045 98.518C360.681 98.518 361.055 98.457 361.578 98.457C361.917 98.457 362.031 98.5354 362.031 98.8402C362.031 99.145 361.952 99.1885 361.595 99.1885Z" fill="#231815"/>
<path d="M372.019 106.818C370.904 107.768 369.484 108.284 368.02 108.273C366.555 108.262 365.143 107.724 364.043 106.757C363.143 105.829 362.64 104.588 362.64 103.295C362.64 102.003 363.143 100.762 364.043 99.8339C365.142 98.8658 366.553 98.326 368.018 98.3132C369.483 98.3004 370.903 98.8155 372.019 99.7642C372.483 100.227 372.851 100.777 373.102 101.382C373.354 101.987 373.483 102.636 373.483 103.291C373.483 103.946 373.354 104.595 373.102 105.2C372.851 105.805 372.483 106.355 372.019 106.818V106.818ZM369.738 99.7033C369.519 99.4847 369.258 99.3127 368.97 99.1975C368.683 99.0822 368.375 99.0262 368.066 99.0328C367.432 99.0317 366.822 99.2786 366.368 99.7207C365.617 100.76 365.213 102.009 365.213 103.291C365.213 104.573 365.617 105.822 366.368 106.861C366.593 107.093 366.865 107.273 367.165 107.392C367.465 107.511 367.787 107.564 368.109 107.549C368.741 107.553 369.349 107.305 369.799 106.861C370.573 105.829 370.992 104.573 370.992 103.282C370.992 101.992 370.573 100.736 369.799 99.7033H369.738Z" fill="#231815"/>
<path d="M385.455 107.331C384.896 107.539 384.356 107.798 383.844 108.106C382.974 108.646 382.582 108.437 382.582 107.853V107.566C382.582 107.505 382.582 107.383 382.442 107.487C381.592 108.082 380.558 108.354 379.525 108.254C378.97 108.264 378.419 108.145 377.918 107.906C377.416 107.667 376.977 107.315 376.634 106.878C376.094 106.19 375.912 105.424 375.912 103.726V99.9812C375.912 99.3542 375.763 99.1888 375.189 99.1888C374.893 99.1888 374.745 99.1278 374.745 98.8492C374.745 98.5705 374.875 98.4399 375.189 98.4399C375.502 98.4399 375.981 98.4399 376.338 98.4399C376.695 98.4399 377.296 98.4399 377.697 98.4399C378.097 98.4399 378.332 98.6489 378.332 99.1278V104.535C378.235 105.247 378.413 105.97 378.829 106.556C379.037 106.758 379.286 106.913 379.56 107.011C379.833 107.108 380.124 107.146 380.413 107.122C380.749 107.138 381.084 107.081 381.395 106.954C381.707 106.828 381.987 106.636 382.216 106.39C382.486 105.926 382.613 105.393 382.582 104.858V99.9812C382.582 99.3542 382.416 99.1888 381.859 99.1888C381.563 99.1888 381.406 99.1278 381.406 98.8492C381.406 98.5705 381.546 98.4399 381.859 98.4399C382.173 98.4399 382.643 98.4399 383.008 98.4399C383.374 98.4399 383.958 98.4399 384.367 98.4399C384.776 98.4399 384.994 98.6489 384.994 99.1278V105.955C384.994 106.39 385.133 106.556 385.403 106.556H385.647C385.899 106.556 386.126 106.643 386.126 106.843C386.126 107.043 385.856 107.2 385.455 107.331Z" fill="#231815"/>
<path d="M393.754 100.713C392.884 100.713 392.736 99.7198 392.135 99.7198C391.961 99.7347 391.794 99.7947 391.65 99.894C391.507 99.9932 391.391 100.128 391.316 100.286C391.087 100.799 390.995 101.363 391.046 101.923V106.347C391.046 107.217 391.177 107.383 391.917 107.383C392.17 107.383 392.326 107.487 392.326 107.722C392.326 107.958 392.17 108.106 391.917 108.106C391.194 108.106 390.402 108.019 389.705 108.019C389.009 108.019 388.373 108.106 387.737 108.106C387.441 108.106 387.311 108.018 387.311 107.722C387.311 107.426 387.441 107.383 387.737 107.383C388.486 107.383 388.669 107.165 388.669 106.347V100.73C388.669 100.434 388.556 100.26 388.321 100.26H388.077C387.833 100.26 387.668 100.155 387.668 99.9375C387.668 99.7198 387.807 99.6154 388.077 99.5718C388.733 99.4252 389.336 99.0997 389.818 98.6313C389.916 98.5164 390.037 98.4241 390.174 98.361C390.311 98.2978 390.46 98.2653 390.611 98.2656C390.95 98.2656 391.037 98.5617 391.037 99.1364C391.037 99.3106 391.151 99.3541 391.238 99.2844C391.781 98.7609 392.496 98.4516 393.249 98.4136C394.451 98.4136 394.895 98.849 394.895 99.5979C394.907 99.7497 394.886 99.9023 394.833 100.045C394.78 100.188 394.695 100.317 394.586 100.423C394.478 100.53 394.347 100.611 394.203 100.661C394.059 100.711 393.906 100.728 393.754 100.713V100.713Z" fill="#231815"/>
<path d="M408.819 107.2C408.07 107.931 406.833 108.254 405.179 108.254C404.28 108.243 403.392 108.053 402.566 107.696C402.105 107.461 401.931 107.226 401.974 106.512L402.044 105.441C402.044 104.858 402.244 104.631 402.601 104.631C403.176 104.631 403.219 106.233 403.899 106.982C404.086 107.174 404.311 107.323 404.561 107.421C404.81 107.518 405.077 107.562 405.344 107.548C405.608 107.557 405.87 107.503 406.11 107.391C406.349 107.279 406.558 107.112 406.72 106.904C406.982 106.559 407.117 106.135 407.103 105.702C407.138 105.371 407.059 105.038 406.881 104.756C406.702 104.475 406.434 104.262 406.119 104.152L404.09 103.403C403.57 103.237 403.119 102.905 402.805 102.459C402.49 102.013 402.33 101.476 402.349 100.93C402.337 100.557 402.413 100.187 402.572 99.8494C402.731 99.5118 402.968 99.2167 403.263 98.9883C404.092 98.4582 405.068 98.2051 406.05 98.2656C406.878 98.2565 407.702 98.386 408.488 98.6488C408.674 98.7072 408.837 98.8226 408.955 98.9789C409.072 99.1351 409.137 99.3243 409.141 99.5196V100.295C409.141 100.852 409.141 101.061 408.758 101.061C408.261 101.061 408.218 100.312 407.425 99.476C407.254 99.3129 407.052 99.1863 406.83 99.104C406.609 99.0217 406.373 98.9853 406.137 98.9971C405.941 99.0065 405.75 99.0562 405.574 99.1431C405.399 99.23 405.244 99.3523 405.118 99.5021C404.893 99.7956 404.781 100.161 404.804 100.53C404.783 100.829 404.869 101.126 405.046 101.368C405.223 101.61 405.48 101.782 405.771 101.853L407.669 102.506C408.25 102.66 408.76 103.008 409.114 103.494C409.467 103.979 409.643 104.571 409.611 105.171C409.633 105.546 409.573 105.922 409.436 106.272C409.3 106.622 409.089 106.939 408.819 107.2Z" fill="#231815"/>
<path d="M416.291 107.566C416.066 107.799 415.795 107.983 415.495 108.106C415.195 108.229 414.873 108.288 414.549 108.28C414.173 108.303 413.795 108.244 413.444 108.107C413.092 107.97 412.774 107.759 412.512 107.487C412.025 106.784 411.823 105.922 411.946 105.075V99.7461C411.951 99.6894 411.944 99.632 411.925 99.5785C411.905 99.5249 411.874 99.4766 411.832 99.4371C411.791 99.3976 411.742 99.3681 411.687 99.3507C411.633 99.3333 411.575 99.3286 411.519 99.3368C411.266 99.3368 410.979 99.2758 410.979 98.9885C410.979 98.7011 411.292 98.5879 411.658 98.4573C412.062 98.2784 412.422 98.0122 412.711 97.678C413 97.3438 413.211 96.9498 413.33 96.5242C413.443 96.2194 413.644 96.0278 413.887 96.0278C414.131 96.0278 414.384 96.4197 414.384 96.8986V98.1526C414.384 98.3616 414.497 98.4748 414.723 98.4748H416.082C416.395 98.4748 416.535 98.5967 416.535 98.9189C416.535 99.2411 416.395 99.3716 416.082 99.3716H414.723C414.48 99.3716 414.384 99.5023 414.384 99.7374V106.007C414.384 106.878 414.593 107.13 415.133 107.13C415.899 107.13 416.108 106.591 416.395 106.53C416.683 106.469 416.831 106.591 416.831 106.791C416.752 107.107 416.56 107.383 416.291 107.566Z" fill="#231815"/>
<path d="M428.76 99.1885C428.643 99.1855 428.526 99.2063 428.417 99.2497C428.307 99.2931 428.208 99.3582 428.125 99.441C427.831 99.7344 427.6 100.084 427.445 100.469L422.795 111.11C422.68 111.452 422.456 111.747 422.157 111.95C421.858 112.152 421.502 112.252 421.141 112.233C420.122 112.233 419.722 112.041 419.722 111.205C419.722 110.535 420.174 110.169 421.141 110.169C421.681 110.169 422.012 110.082 422.186 109.699L422.586 108.828C422.7 108.593 422.682 108.253 422.43 107.687L419.199 100.233C418.886 99.4759 418.659 99.2233 418.18 99.2233C417.867 99.2233 417.771 99.1101 417.771 98.8576C417.771 98.6051 417.867 98.4745 418.18 98.4745C418.842 98.4745 419.382 98.5354 420.148 98.5354C421.071 98.5354 421.62 98.4745 422.386 98.4745C422.7 98.4745 422.813 98.5354 422.813 98.8576C422.813 99.1798 422.682 99.2233 422.386 99.2233C422.09 99.2233 421.977 99.2233 421.89 99.3888C421.803 99.5542 421.89 99.65 421.933 99.8939L424.197 105.119L426.409 100.024C426.46 99.929 426.483 99.8212 426.475 99.7134C426.467 99.6056 426.43 99.5022 426.366 99.4149C426.244 99.2669 426 99.2059 425.573 99.2059C425.147 99.2059 425.12 99.0927 425.12 98.8402C425.12 98.5877 425.26 98.457 425.573 98.457C426.07 98.457 426.592 98.518 427.219 98.518C427.846 98.518 428.238 98.457 428.76 98.457C429.1 98.457 429.205 98.5354 429.205 98.8402C429.205 99.145 429.144 99.1885 428.76 99.1885Z" fill="#231815"/>
<path d="M434.506 108.106C433.784 108.106 432.965 108.019 432.268 108.019C431.572 108.019 430.919 108.106 430.283 108.106C429.996 108.106 429.848 108.037 429.848 107.723C429.848 107.41 429.996 107.383 430.283 107.383C431.032 107.383 431.232 107.14 431.232 106.347V95.5929C431.232 95.1227 431.032 94.9485 430.553 94.8876C430.24 94.8876 430.074 94.7395 430.074 94.5392C430.074 94.339 430.213 94.2432 430.483 94.1996C431.211 94.0602 431.889 93.733 432.451 93.2505C432.774 92.9805 432.922 92.8848 433.174 92.8848C433.427 92.8848 433.644 93.085 433.644 93.7556V106.373C433.644 107.244 433.827 107.41 434.515 107.41C434.768 107.41 434.924 107.488 434.924 107.749C434.924 108.01 434.759 108.106 434.506 108.106Z" fill="#231815"/>
<path d="M444.8 102.75H439.105C439.03 102.745 438.955 102.77 438.896 102.818C438.838 102.867 438.801 102.936 438.792 103.011C438.743 103.58 438.808 104.152 438.982 104.695C439.157 105.237 439.439 105.74 439.811 106.172C440.101 106.455 440.444 106.677 440.821 106.827C441.198 106.976 441.6 107.05 442.005 107.043C442.873 107.048 443.722 106.793 444.443 106.312C444.694 106.095 444.992 105.939 445.314 105.859C445.54 105.859 445.601 105.937 445.601 106.094C445.601 106.416 445.288 106.808 444.635 107.296C443.73 107.934 442.641 108.258 441.535 108.219C440.168 108.284 438.828 107.823 437.79 106.93C437.28 106.462 436.875 105.89 436.602 105.254C436.328 104.618 436.193 103.93 436.206 103.238C436.18 102.554 436.3 101.873 436.558 101.239C436.817 100.605 437.207 100.034 437.703 99.563C438.734 98.645 440.087 98.1722 441.465 98.2481C442.634 98.177 443.786 98.5607 444.678 99.3192C445.019 99.6294 445.288 100.009 445.469 100.433C445.649 100.857 445.736 101.314 445.723 101.775C445.739 101.902 445.726 102.031 445.686 102.153C445.646 102.275 445.58 102.387 445.492 102.48C445.403 102.573 445.296 102.646 445.176 102.692C445.057 102.739 444.928 102.759 444.8 102.75ZM442.684 99.7023C442.526 99.4805 442.315 99.3016 442.07 99.1815C441.825 99.0615 441.555 99.004 441.282 99.0144C440.966 99.0118 440.653 99.08 440.367 99.2142C440.081 99.3483 439.828 99.5449 439.628 99.7894C439.21 100.315 438.953 100.95 438.888 101.618C438.888 101.784 438.957 101.923 439.201 101.923H442.345C442.885 101.923 443.085 101.766 443.085 101.357C443.117 100.779 442.981 100.204 442.693 99.7023H442.684Z" fill="#231815"/>
</svg>
