<svg width="278" height="141" viewBox="0 0 278 141" fill="none" xmlns="http://www.w3.org/2000/svg">
<path d="M147.843 27.7051L154.302 7.72653C154.302 7.72653 153.242 7.44672 151.743 6.92627L145.645 27.7051H147.843Z" fill="#717171"/>
<path d="M143.732 27.7052L149.974 6.69409C146.343 5.39432 141.063 3.01513 140.455 0H136.979C136.372 3.02071 131.094 5.3999 127.463 6.69409L133.703 27.7052H143.732ZM132.395 4.53804L138.727 17.4911L145.048 4.53804L147.54 11.0146L138.719 17.4995L129.898 11.0229L132.395 4.53804Z" fill="#717171"/>
<path d="M132.658 27.7051L126.568 6.92627C125.065 7.44112 124 7.72653 124 7.72653L130.473 27.7051H132.658Z" fill="#717171"/>
<path d="M130.4 27.7051L124 44.317L128.18 47.6182L132.658 27.7051H130.4Z" fill="#717171"/>
<path d="M134.459 27.7051L130.061 47.9718L139.151 55.4102L148.242 47.9718L143.844 27.7051H134.459Z" fill="#717171"/>
<path d="M145.645 27.7051L150.123 47.6182L154.302 44.317L147.902 27.7051H145.645Z" fill="#717171"/>
<path d="M139.151 55.4102C139.151 55.4102 137.359 61.8523 130.061 65.7996H148.242C140.873 61.8523 139.151 55.4102 139.151 55.4102Z" fill="#717171"/>
<path d="M57.4404 82V86.5162H46.8216V95.1646H56.2542V99.1953H46.8216V106.952C46.7631 107.682 46.9639 108.409 47.3891 109.007C47.6092 109.249 47.8822 109.438 48.1871 109.56C48.4921 109.681 48.821 109.731 49.1485 109.707H57.4234V114.223H45.6467C43.4446 114.223 41.8214 113.639 40.7771 112.473C39.7328 111.306 39.2164 109.626 39.2277 107.432V82H57.4404Z" fill="#717171"/>
<path d="M75.2012 102.766H82.6449V107.433C82.6868 108.332 82.5524 109.23 82.2496 110.076C81.9467 110.922 81.4815 111.698 80.881 112.359C79.7014 113.601 77.9912 114.223 75.7503 114.223H68.5451C66.3005 114.223 64.5903 113.601 63.4144 112.359C62.814 111.698 62.3487 110.922 62.0459 110.076C61.7431 109.23 61.6087 108.332 61.6505 107.433V88.7903C61.6087 87.891 61.7431 86.9923 62.0459 86.1465C62.3487 85.3008 62.814 84.5249 63.4144 83.8642C64.5903 82.6214 66.3005 82 68.5451 82H75.7559C77.9968 82 79.707 82.6214 80.8866 83.8642C81.487 84.5249 81.9523 85.3008 82.2551 86.1465C82.5579 86.9923 82.6923 87.891 82.6505 88.7903V92.5187H75.2012V89.4908C75.2357 88.5438 74.952 87.6132 74.3969 86.8526C74.1209 86.5236 73.7782 86.2593 73.3923 86.0782C73.0064 85.897 72.5865 85.8032 72.1616 85.8032C71.7367 85.8032 71.3168 85.897 70.9309 86.0782C70.545 86.2593 70.2022 86.5236 69.9263 86.8526C69.3732 87.6139 69.0914 88.5445 69.1275 89.4908V106.495C69.1042 107.474 69.3836 108.437 69.9263 109.246C70.1839 109.603 70.5205 109.894 70.9088 110.094C71.2972 110.294 71.7263 110.399 72.1616 110.399C72.5969 110.399 73.026 110.294 73.4144 110.094C73.8027 109.894 74.1393 109.603 74.3969 109.246C74.9412 108.437 75.2225 107.475 75.2012 106.495V102.766Z" fill="#717171"/>
<path d="M95.8269 99.1919V114.223H88.2622V82H95.8269V95.1633H101.718V82H109.277V114.223H101.718V99.1919H95.8269Z" fill="#717171"/>
<path d="M117.894 82C120.434 82 122.488 83.4294 124.056 86.2881L131.203 99.1242V82H137.297V114.223H135.696C132.541 114.223 130.237 112.786 128.783 109.912L120.975 95.4624V114.223H114.881V82H117.894Z" fill="#717171"/>
<path d="M156.995 82C159.242 82 160.956 82.6214 162.139 83.8642C162.741 84.5249 163.208 85.3008 163.511 86.1465C163.815 86.9923 163.95 87.891 163.908 88.7903V107.433C163.95 108.332 163.815 109.23 163.511 110.076C163.208 110.922 162.741 111.698 162.139 112.359C160.956 113.601 159.242 114.223 156.995 114.223H149.821C147.566 114.223 145.853 113.601 144.682 112.359C144.079 111.698 143.611 110.923 143.307 110.077C143.002 109.231 142.866 108.332 142.908 107.433V88.7903C142.866 87.8907 143.002 86.9917 143.307 86.1459C143.611 85.3001 144.079 84.5244 144.682 83.8642C145.857 82.6214 147.57 82 149.821 82H156.995ZM153.413 110.41C153.851 110.425 154.286 110.327 154.675 110.123C155.065 109.919 155.396 109.617 155.638 109.246C156.184 108.437 156.466 107.475 156.444 106.495V89.4908C156.479 88.5438 156.194 87.6132 155.638 86.8526C155.361 86.5236 155.017 86.2593 154.631 86.0782C154.244 85.897 153.823 85.8031 153.397 85.8031C152.971 85.8031 152.55 85.897 152.163 86.0782C151.776 86.2593 151.432 86.5236 151.155 86.8526C150.603 87.6151 150.321 88.5448 150.354 89.4908V106.495C150.334 107.474 150.614 108.435 151.155 109.246C151.404 109.622 151.744 109.927 152.143 110.13C152.541 110.334 152.984 110.43 153.43 110.41H153.413Z" fill="#717171"/>
<path d="M198.94 114.223H191.379V95.4624L183.442 114.223L175.5 95.4624V114.223H169.52V82H172.025C174.984 82 177.159 83.4294 178.549 86.2881L184.378 99.0621L189.905 86.2994C191.301 83.4388 193.47 82.0113 196.435 82.0113H198.94V114.223Z" fill="#717171"/>
<path d="M212.502 102.519V114.212H204.544V82H219.582C221.977 82 223.806 82.6216 225.067 83.8649C225.709 84.5258 226.206 85.3019 226.53 86.148C226.853 86.9941 226.997 87.8931 226.952 88.7927V114.223H218.995V102.519H212.502ZM218.995 98.4844V89.7081C219.017 88.7259 218.716 87.7618 218.135 86.9504C217.876 86.5802 217.522 86.279 217.107 86.0753C216.692 85.8716 216.23 85.7721 215.763 85.7863H212.502V98.4844H218.995Z" fill="#717171"/>
<path d="M253.571 88.7724V107.428C253.616 108.328 253.472 109.227 253.148 110.073C252.825 110.92 252.327 111.696 251.685 112.357C250.424 113.601 248.596 114.223 246.2 114.223H231.163V82H246.2C248.596 82 250.424 82.6218 251.685 83.8655C252.324 84.524 252.82 85.2966 253.144 86.1389C253.467 86.9812 253.613 87.8763 253.571 88.7724ZM245.613 106.489V89.4734C245.65 88.5258 245.347 87.5945 244.754 86.8334C244.476 86.4894 244.115 86.2143 243.703 86.0312C243.29 85.8482 242.837 85.7627 242.382 85.7819H239.121V110.407H242.382C242.849 110.423 243.312 110.324 243.727 110.12C244.143 109.916 244.496 109.614 244.754 109.242C245.335 108.433 245.636 107.47 245.613 106.489V106.489Z" fill="#717171"/>
<path d="M277.395 82V86.5162H266.803V95.1646H276.218V99.1953H266.803V106.952C266.745 107.682 266.945 108.409 267.369 109.007C267.587 109.249 267.859 109.438 268.162 109.56C268.465 109.681 268.793 109.731 269.118 109.707H277.379V114.223H265.614C263.417 114.223 261.796 113.639 260.751 112.473C259.709 111.304 259.183 109.65 259.183 107.437V82H277.395Z" fill="#717171"/>
<path d="M29.4206 112.822H15.4106V114.223H29.4206V112.822Z" fill="#717171"/>
<path d="M17.6981 90.4062L16.8115 111.421H26.6185L25.7319 90.4062H17.6981ZM23.1549 94.1923C23.1549 94.4845 23.0702 94.7701 22.9114 95.013C22.7526 95.2558 22.527 95.445 22.2631 95.5566C21.9991 95.6681 21.7088 95.697 21.4288 95.6396C21.1488 95.5822 20.8917 95.4411 20.6902 95.2341C20.4886 95.0271 20.3517 94.7635 20.2966 94.4768C20.2416 94.1901 20.2709 93.8931 20.381 93.6235C20.491 93.3539 20.6768 93.1237 20.9147 92.9622C21.1527 92.8007 21.4322 92.7151 21.7177 92.7162C22.097 92.7206 22.4591 92.8783 22.7253 93.1548C22.9914 93.4313 23.1399 93.8042 23.1384 94.1923H23.1549Z" fill="#717171"/>
<path d="M4.20079 89.5913C3.7048 89.5757 3.2212 89.373 2.80176 89.0049L3.32151 93.2079C3.57732 92.9478 3.88397 92.802 4.20079 92.7897C4.51761 92.802 4.82426 92.9478 5.08007 93.2079L5.60374 89.0049C5.18267 89.3725 4.69793 89.5751 4.20079 89.5913V89.5913Z" fill="#717171"/>
<path d="M1.89825 94.8563C1.89825 94.7674 1.92714 94.6914 1.93126 94.6089L0 96.8291V101.707L1.8446 104.416L1.82397 98.231L2.80198 97.1146C2.53287 96.8984 2.3068 96.5744 2.14771 96.1768C1.98861 95.7793 1.90242 95.323 1.89825 94.8563V94.8563Z" fill="#717171"/>
<path d="M7.00488 82C7.43931 82.4282 7.78877 82.9638 8.02859 83.569C8.2684 84.1743 8.3927 84.8343 8.3927 85.5025C8.3927 86.1707 8.2684 86.8307 8.02859 87.4359C7.78877 88.0411 7.43931 88.5768 7.00488 89.005H14.0098V82H7.00488Z" fill="#717171"/>
<path d="M3.59464 88.8492C3.78999 88.9307 3.99242 88.983 4.19766 89.005C4.93514 88.9772 5.63634 88.599 6.15806 87.9475C6.67978 87.2959 6.98266 86.4202 7.00484 85.4992C7.00484 85.0392 6.9322 84.5836 6.79106 84.1587C6.64992 83.7337 6.44306 83.3476 6.18232 83.0226C5.92158 82.6976 5.61208 82.44 5.27153 82.2645C4.93097 82.089 4.56606 81.9992 4.19766 82C3.45543 82.0017 2.74407 82.3712 2.21972 83.0272C1.69537 83.6833 1.40088 84.5723 1.40088 85.4992C1.40889 86.3232 1.65435 87.1161 2.09228 87.7325C2.48046 88.3019 3.00878 88.6946 3.59464 88.8492V88.8492ZM3.66742 84.4151C3.81728 84.2661 3.99718 84.1718 4.18727 84.1424C4.33661 84.1295 4.48649 84.1551 4.62758 84.2176C4.76867 84.2801 4.89794 84.3782 5.00739 84.5058C5.11684 84.6333 5.20411 84.7876 5.26378 84.9591C5.32344 85.1306 5.35424 85.3155 5.35424 85.5025C5.35424 85.6894 5.32344 85.8744 5.26378 86.0458C5.20411 86.2173 5.11684 86.3716 5.00739 86.4992C4.89794 86.6267 4.76867 86.7248 4.62758 86.7873C4.48649 86.8499 4.33661 86.8755 4.18727 86.8626C3.95175 86.8731 3.72036 86.7833 3.53105 86.608C3.34173 86.4328 3.20571 86.1824 3.14528 85.8979C3.08486 85.6134 3.10363 85.3117 3.19849 85.0423C3.29336 84.7729 3.4587 84.5517 3.66742 84.4151V84.4151Z" fill="#717171"/>
<path d="M6.94306 94.8566C6.9381 95.3234 6.81094 95.7801 6.57509 96.1782C6.33924 96.5763 6.00351 96.901 5.60352 97.1178L7.05367 98.2356V104.416L9.80649 101.716V96.832L6.92462 94.6089C6.90004 94.6915 6.94306 94.7676 6.94306 94.8566Z" fill="#717171"/>
<path d="M5.27443 95.2185C5.15858 95.0374 5.00047 94.8872 4.81376 94.781C4.62704 94.6748 4.41734 94.6157 4.20274 94.6089C3.98856 94.6176 3.77956 94.6775 3.59315 94.7835C3.40673 94.8895 3.2483 95.0387 3.13107 95.2185V95.2185C2.93916 95.4388 2.82363 95.7155 2.80176 96.0071C2.80937 96.3384 2.93704 96.6556 3.16095 96.8995C3.38485 97.1434 3.6897 97.2974 4.01856 97.3326C4.09112 97.3326 4.13018 97.4109 4.20274 97.4109C4.27531 97.4109 4.31996 97.3438 4.38694 97.3326C4.7158 97.2974 5.02063 97.1434 5.24454 96.8995C5.46844 96.6556 5.59612 96.3384 5.60374 96.0071C5.58227 95.7154 5.46668 95.4386 5.27443 95.2185V95.2185Z" fill="#717171"/>
<path d="M33.6235 82H15.4106V89.005H33.6235V82Z" fill="#717171"/>
<path d="M42.0276 136.774C41.9969 137.221 41.8845 137.377 41.4299 137.595C40.7495 137.916 40.0031 138.066 39.2538 138.032C38.6715 138.069 38.0882 137.976 37.5452 137.759C37.0023 137.541 36.513 137.205 36.1122 136.774C35.7442 136.391 35.4579 135.935 35.2716 135.434C35.0852 134.933 35.0027 134.398 35.0293 133.863C35.0035 133.324 35.0903 132.785 35.284 132.283C35.4777 131.78 35.7739 131.325 36.1531 130.947C36.5958 130.509 37.1217 130.166 37.6987 129.941C38.2757 129.716 38.8917 129.612 39.5092 129.637C40.1495 129.632 40.7858 129.741 41.389 129.96C41.7466 130.105 41.8641 130.204 41.8998 130.625L41.9918 131.446C42.0327 131.768 41.9407 131.883 41.8079 131.883C41.4759 131.883 41.3992 131.399 40.7199 130.667C40.554 130.482 40.3481 130.338 40.1185 130.248C39.8889 130.158 39.6418 130.123 39.3968 130.147C38.9897 130.169 38.5931 130.287 38.2385 130.492C37.8839 130.697 37.581 130.982 37.3535 131.327C36.8804 132.085 36.6419 132.97 36.669 133.868C36.6339 134.739 36.8449 135.601 37.2769 136.353C37.4802 136.722 37.777 137.029 38.1363 137.242C38.4956 137.455 38.9044 137.566 39.3202 137.564C39.5717 137.582 39.8242 137.546 40.0605 137.456C40.2968 137.366 40.5112 137.226 40.6892 137.044C41.2562 136.467 41.6036 135.531 41.7568 135.531C42.0122 135.531 42.0378 135.594 42.0276 135.963V136.774Z" fill="#717171"/>
<path d="M48.1617 133.83C47.5223 133.83 47.4136 133.264 46.9724 133.264C46.8447 133.273 46.7221 133.307 46.6166 133.363C46.5112 133.42 46.4267 133.497 46.3714 133.587C46.2035 133.879 46.1352 134.2 46.1732 134.519V137.038C46.1732 137.534 46.2691 137.628 46.8126 137.628C46.998 137.628 47.1131 137.688 47.1131 137.822C47.1131 137.956 46.998 138.04 46.8126 138.04C46.2819 138.04 45.7 137.99 45.1885 137.99C44.677 137.99 44.2103 138.04 43.7435 138.04C43.5325 138.04 43.4302 137.99 43.4302 137.822C43.4302 137.653 43.5325 137.628 43.7435 137.628C44.2934 137.628 44.4276 137.504 44.4276 137.038V133.839C44.4276 133.671 44.3445 133.572 44.1719 133.572H43.9928C43.8138 133.572 43.6923 133.512 43.6923 133.388C43.6923 133.264 43.7946 133.205 43.9928 133.18C44.4861 133.101 44.9405 132.915 45.3036 132.644C45.3752 132.579 45.4644 132.526 45.5649 132.49C45.6654 132.454 45.7748 132.436 45.8855 132.436C46.1348 132.436 46.1988 132.605 46.1988 132.932C46.1988 133.031 46.2819 133.056 46.3458 133.016C46.7449 132.718 47.2695 132.542 47.8228 132.52C48.7052 132.52 49.0313 132.768 49.0313 133.195C49.0412 133.284 49.0251 133.373 48.9841 133.456C48.9432 133.539 48.8784 133.614 48.7947 133.676C48.7111 133.737 48.6106 133.782 48.501 133.809C48.3914 133.836 48.2754 133.843 48.1617 133.83V133.83Z" fill="#717171"/>
<path d="M54.0961 134.2H50.7434C50.6988 134.196 50.6548 134.213 50.6205 134.247C50.5861 134.281 50.5641 134.33 50.5589 134.383C50.5276 134.782 50.5647 135.184 50.6678 135.565C50.7709 135.946 50.9379 136.298 51.1587 136.6C51.3285 136.799 51.5297 136.955 51.7506 137.06C51.9715 137.165 52.2077 137.216 52.4454 137.211C52.9578 137.216 53.4596 137.037 53.8859 136.698C54.033 136.545 54.2088 136.436 54.3985 136.38C54.5267 136.38 54.5677 136.435 54.5677 136.545C54.5677 136.771 54.378 137.046 53.9987 137.388C53.4657 137.835 52.825 138.062 52.1737 138.036C51.3689 138.082 50.58 137.758 49.9694 137.132C49.6681 136.804 49.429 136.403 49.2681 135.957C49.1072 135.51 49.0282 135.028 49.0364 134.542C49.0206 134.062 49.0905 133.585 49.2417 133.14C49.3928 132.696 49.6217 132.295 49.913 131.964C50.5229 131.322 51.3199 130.991 52.1327 131.041C52.8196 130.99 53.4963 131.259 54.0192 131.793C54.2204 132.01 54.3796 132.276 54.4858 132.573C54.592 132.871 54.6427 133.192 54.6343 133.515C54.6435 133.604 54.6361 133.694 54.6128 133.779C54.5895 133.864 54.5508 133.942 54.4995 134.008C54.4482 134.073 54.3854 134.124 54.3157 134.157C54.246 134.19 54.171 134.205 54.0961 134.2ZM52.8453 132.062C52.753 131.905 52.6289 131.778 52.4846 131.694C52.3403 131.61 52.1805 131.57 52.0199 131.579C51.8345 131.577 51.6512 131.625 51.4835 131.719C51.3157 131.813 51.168 131.951 51.051 132.123C50.8055 132.492 50.6526 132.937 50.6102 133.405C50.6102 133.522 50.6512 133.619 50.7998 133.619H52.6504C52.9683 133.619 53.0862 133.509 53.0862 133.222C53.1043 132.815 53.0204 132.411 52.8453 132.062Z" fill="#717171"/>
<path d="M62.5649 137.666C62.2486 137.852 61.8591 137.953 61.4579 137.954C61.2372 137.941 61.027 137.878 60.8556 137.772C60.6843 137.667 60.56 137.524 60.4997 137.364C60.4997 137.291 60.435 137.291 60.3508 137.364C60.0395 137.594 59.6681 137.772 59.2601 137.888C58.8521 138.004 58.4166 138.054 57.9813 138.036C56.8419 138.036 56.0391 137.661 56.0391 136.857C56.0391 135.881 57.0814 135.462 58.4021 135.052L59.8523 134.604C60.1307 134.521 60.2019 134.306 60.2019 134.077V133.653C60.2019 133.258 60.0724 132.834 59.425 132.834C58.7776 132.834 58.3503 133.102 58.0849 133.692C58.0093 133.922 57.8162 134.12 57.5475 134.243C57.3033 134.355 57.0243 134.418 56.7383 134.423C56.3369 134.423 56.0908 134.331 56.0908 134.029C56.1353 133.844 56.2323 133.668 56.3754 133.514C56.5184 133.36 56.7041 133.231 56.9195 133.136C57.7427 132.674 58.7477 132.432 59.7746 132.449C60.0949 132.42 60.4198 132.441 60.7285 132.511C61.0373 132.582 61.3231 132.7 61.5679 132.858C61.7255 133.004 61.8427 133.171 61.9128 133.351C61.9828 133.531 62.0042 133.72 61.9758 133.907V136.832C61.9758 137.193 62.0405 137.29 62.1959 137.29C62.4937 137.29 62.7462 137.047 62.8433 137.047C62.9404 137.047 63.044 137.095 63.044 137.193C63.044 137.29 62.921 137.471 62.5649 137.666ZM60.1825 135.296C60.1825 135.16 60.1113 135.091 59.93 135.15L58.8035 135.501C58.5251 135.594 58.2904 135.748 58.1299 135.943C57.9694 136.137 57.8905 136.364 57.9036 136.593C57.8948 136.687 57.911 136.78 57.951 136.869C57.9911 136.958 58.0544 137.039 58.137 137.109C58.2196 137.179 58.3201 137.236 58.4323 137.277C58.5445 137.317 58.6663 137.34 58.7906 137.344C58.9981 137.351 59.2052 137.323 59.3967 137.263C59.5882 137.202 59.7593 137.11 59.8976 136.993C60.1056 136.8 60.2075 136.554 60.1825 136.306V135.296Z" fill="#717171"/>
<path d="M66.8768 137.547C66.7144 137.706 66.5191 137.832 66.3032 137.916C66.0873 138.001 65.8555 138.041 65.6222 138.036C65.3508 138.052 65.079 138.012 64.8256 137.918C64.5722 137.824 64.3432 137.679 64.1543 137.493C63.8038 137.01 63.6581 136.419 63.7465 135.839V132.184C63.7465 131.993 63.6336 131.903 63.4329 131.903C63.2321 131.903 63.0439 131.861 63.0439 131.664C63.0439 131.467 63.276 131.39 63.5332 131.3C63.825 131.178 64.0846 130.996 64.293 130.767C64.5013 130.537 64.6533 130.267 64.7377 129.974C64.7604 129.884 64.8119 129.803 64.8849 129.742C64.9579 129.681 65.0489 129.644 65.1454 129.634C65.4089 129.634 65.503 129.903 65.503 130.231V131.091C65.503 131.234 65.5846 131.312 65.7477 131.312H66.72C66.9521 131.312 67.0525 131.396 67.0525 131.617C67.0525 131.837 66.9521 131.927 66.72 131.927H65.7351C65.5532 131.927 65.4905 132.017 65.4905 132.178V136.478C65.4905 137.075 65.6347 137.248 66.0237 137.248C66.582 137.248 66.7263 136.878 66.9395 136.836C67.1528 136.794 67.2469 136.878 67.2469 137.015C67.1962 137.23 67.0645 137.419 66.8768 137.547Z" fill="#717171"/>
<path d="M73.575 134.2H69.3879C69.3322 134.196 69.2772 134.213 69.2343 134.247C69.1914 134.281 69.1639 134.33 69.1574 134.383C69.1184 134.782 69.1647 135.184 69.2934 135.565C69.4222 135.946 69.6308 136.298 69.9065 136.6C70.1184 136.799 70.3696 136.955 70.6455 137.06C70.9215 137.165 71.2165 137.216 71.5135 137.211C72.1531 137.213 72.7791 137.035 73.3125 136.698C73.4955 136.544 73.7153 136.435 73.9528 136.38C74.1128 136.38 74.164 136.435 74.164 136.545C74.164 136.771 73.9272 137.046 73.447 137.388C72.7842 137.836 71.9856 138.063 71.1742 138.036C70.1691 138.082 69.1837 137.758 68.4212 137.132C68.0438 136.805 67.744 136.404 67.542 135.958C67.3399 135.511 67.2402 135.028 67.2496 134.542C67.2306 134.062 67.319 133.584 67.5089 133.139C67.6988 132.695 67.9858 132.294 68.3508 131.964C69.1125 131.322 70.1079 130.991 71.123 131.041C71.9808 130.99 72.826 131.259 73.479 131.793C73.7303 132.01 73.9291 132.276 74.0618 132.573C74.1945 132.871 74.2577 133.192 74.2473 133.515C74.2587 133.604 74.2495 133.694 74.2204 133.779C74.1913 133.864 74.143 133.942 74.0789 134.008C74.0148 134.073 73.9364 134.124 73.8493 134.157C73.7623 134.19 73.6686 134.205 73.575 134.2ZM72.0129 132.062C71.8972 131.905 71.7422 131.779 71.5621 131.695C71.382 131.61 71.1825 131.571 70.9821 131.579C70.7505 131.577 70.5214 131.624 70.3118 131.719C70.1023 131.813 69.9178 131.951 69.7721 132.123C69.4654 132.492 69.2745 132.937 69.2215 133.405C69.2215 133.522 69.2727 133.619 69.4584 133.619H71.7824C72.1793 133.619 72.3266 133.509 72.3266 133.222C72.3454 132.814 72.2361 132.41 72.0129 132.062Z" fill="#717171"/>
<path d="M85.1624 132.882C85.0907 132.88 85.0193 132.893 84.9526 132.92C84.886 132.946 84.8253 132.986 84.7744 133.036C84.5954 133.215 84.4544 133.429 84.3599 133.663L81.5164 140.155C81.4477 140.364 81.3121 140.544 81.1305 140.668C80.9489 140.792 80.7315 140.853 80.5119 140.84C79.8901 140.84 79.6403 140.724 79.6403 140.214C79.6403 139.805 79.922 139.581 80.5119 139.581C80.8414 139.581 81.0434 139.528 81.1444 139.295L81.3942 138.763C81.4633 138.62 81.4526 138.413 81.2985 138.067L79.3267 133.52C79.1301 133.058 78.9972 132.904 78.7049 132.904C78.5135 132.904 78.4551 132.834 78.4551 132.68C78.4551 132.526 78.5135 132.447 78.7049 132.447C79.1088 132.447 79.4383 132.484 79.906 132.484C80.4694 132.484 80.8042 132.447 81.2719 132.447C81.4633 132.447 81.5324 132.484 81.5324 132.68C81.5324 132.877 81.4526 132.904 81.2719 132.904C81.0912 132.904 81.0221 132.904 80.9637 133.004C80.9052 133.105 80.9637 133.164 80.9956 133.313L82.3774 136.5L83.7274 133.392C83.7611 133.336 83.7789 133.272 83.7789 133.206C83.7789 133.141 83.7611 133.077 83.7274 133.02C83.653 132.93 83.5042 132.893 83.2437 132.893C83.063 132.893 82.9674 132.824 82.9674 132.67C82.9674 132.516 83.0471 132.436 83.2437 132.436C83.5467 132.436 83.8603 132.473 84.2483 132.473C84.6362 132.473 84.8701 132.436 85.189 132.436C85.3909 132.436 85.46 132.484 85.46 132.67C85.46 132.856 85.4069 132.882 85.1624 132.882Z" fill="#717171"/>
<path d="M92.9159 137.224C92.1958 137.757 91.2796 138.046 90.3345 138.04C89.3893 138.034 88.4783 137.732 87.7677 137.189C87.1864 136.668 86.8613 135.97 86.8613 135.243C86.8613 134.517 87.1864 133.819 87.7677 133.297C88.4749 132.749 89.3865 132.443 90.3333 132.436C91.2801 132.429 92.1978 132.721 92.9159 133.258C93.217 133.517 93.456 133.826 93.6192 134.167C93.7823 134.507 93.8663 134.872 93.8663 135.241C93.8663 135.61 93.7823 135.975 93.6192 136.315C93.456 136.655 93.217 136.964 92.9159 137.224V137.224ZM91.4418 133.224C91.301 133.101 91.1333 133.005 90.9486 132.94C90.764 132.875 90.5662 132.843 90.3671 132.847C90.1593 132.842 89.9527 132.874 89.7594 132.941C89.5661 133.007 89.3901 133.107 89.2418 133.233C88.7567 133.818 88.4955 134.52 88.4955 135.241C88.4955 135.962 88.7567 136.664 89.2418 137.248C89.3875 137.378 89.563 137.48 89.7569 137.546C89.9509 137.613 90.1588 137.643 90.3671 137.635C90.7751 137.635 91.167 137.496 91.4586 137.248C92.0025 136.693 92.2751 135.974 92.2182 135.246C92.2496 134.881 92.1971 134.514 92.0637 134.167C91.9304 133.82 91.719 133.499 91.4418 133.224V133.224Z" fill="#717171"/>
<path d="M100.453 137.429C100.111 137.547 99.7808 137.693 99.467 137.865C98.931 138.168 98.6898 138.05 98.6898 137.723V137.561C98.6898 137.527 98.6898 137.459 98.6041 137.517C98.0836 137.853 97.448 138.005 96.814 137.948C96.4719 137.954 96.133 137.888 95.824 137.754C95.5151 137.619 95.2448 137.421 95.0346 137.175C94.7023 136.789 94.5897 136.358 94.5897 135.405V133.302C94.5897 132.95 94.4933 132.857 94.1449 132.857C93.9627 132.857 93.8662 132.822 93.8662 132.666C93.8662 132.509 93.9466 132.436 94.1449 132.436C94.3432 132.436 94.6326 132.436 94.8524 132.436C95.0721 132.436 95.4366 132.436 95.6831 132.436C95.9296 132.436 96.0797 132.553 96.0797 132.822V135.859C96.0211 136.259 96.1282 136.663 96.3798 136.994C96.508 137.108 96.6615 137.195 96.8297 137.25C96.998 137.304 97.1772 137.326 97.3553 137.312C97.5618 137.321 97.768 137.289 97.9596 137.218C98.1511 137.147 98.3235 137.039 98.4647 136.901C98.6307 136.641 98.709 136.341 98.6898 136.04V133.302C98.6898 132.95 98.5933 132.857 98.245 132.857C98.0628 132.857 97.9663 132.822 97.9663 132.666C97.9663 132.509 98.052 132.436 98.245 132.436C98.4379 132.436 98.7327 132.436 98.9524 132.436C99.1722 132.436 99.5366 132.436 99.7885 132.436C100.04 132.436 100.18 132.553 100.18 132.822V136.657C100.18 136.901 100.26 136.994 100.426 136.994H100.576C100.732 136.994 100.871 137.043 100.871 137.155C100.871 137.268 100.705 137.356 100.453 137.429Z" fill="#717171"/>
<path d="M107.026 133.83C106.384 133.83 106.281 133.264 105.831 133.264C105.703 133.272 105.581 133.306 105.476 133.363C105.37 133.419 105.287 133.497 105.234 133.587C105.056 133.877 104.985 134.199 105.028 134.519V137.038C105.028 137.534 105.131 137.628 105.67 137.628C105.857 137.628 105.972 137.688 105.972 137.822C105.972 137.956 105.857 138.04 105.67 138.04C105.137 138.04 104.559 137.99 104.039 137.99C103.518 137.99 103.056 138.04 102.593 138.04C102.375 138.04 102.272 137.99 102.272 137.822C102.272 137.653 102.375 137.628 102.593 137.628C103.139 137.628 103.274 137.504 103.274 137.038V133.839C103.274 133.671 103.191 133.572 103.024 133.572H102.837C102.657 133.572 102.542 133.512 102.542 133.388C102.542 133.264 102.638 133.205 102.837 133.18C103.321 133.096 103.766 132.911 104.122 132.644C104.194 132.579 104.284 132.527 104.385 132.491C104.486 132.455 104.596 132.436 104.707 132.436C104.957 132.436 105.022 132.605 105.022 132.932C105.022 133.031 105.105 133.056 105.176 133.016C105.575 132.716 106.103 132.54 106.66 132.52C107.54 132.52 107.874 132.768 107.874 133.195C107.882 133.281 107.865 133.368 107.825 133.45C107.785 133.531 107.723 133.604 107.642 133.665C107.561 133.725 107.464 133.771 107.357 133.8C107.251 133.828 107.138 133.839 107.026 133.83V133.83Z" fill="#717171"/>
<path d="M118.139 137.221C117.418 137.756 116.501 138.046 115.555 138.04C114.608 138.034 113.696 137.731 112.985 137.187C112.404 136.665 112.079 135.966 112.079 135.239C112.079 134.512 112.404 133.814 112.985 133.292C113.696 132.747 114.607 132.443 115.554 132.436C116.5 132.429 117.417 132.719 118.139 133.253C118.438 133.513 118.676 133.822 118.838 134.163C119.001 134.503 119.084 134.868 119.084 135.237C119.084 135.605 119.001 135.97 118.838 136.311C118.676 136.651 118.438 136.961 118.139 137.221V137.221ZM116.676 133.218C116.534 133.095 116.366 132.998 116.18 132.934C115.994 132.869 115.796 132.837 115.596 132.841C115.186 132.84 114.792 132.979 114.499 133.228C114.014 133.813 113.752 134.516 113.752 135.237C113.752 135.958 114.014 136.661 114.499 137.246C114.644 137.376 114.82 137.478 115.014 137.544C115.207 137.611 115.415 137.641 115.624 137.633C116.032 137.635 116.425 137.495 116.715 137.246C117.216 136.665 117.486 135.958 117.486 135.232C117.486 134.506 117.216 133.799 116.715 133.218H116.676Z" fill="#717171"/>
<path d="M124.722 134.779L123.303 137.673C123.271 137.776 123.201 137.868 123.105 137.934C123.008 138 122.89 138.037 122.767 138.04C122.527 138.04 122.396 137.916 122.265 137.658L120.013 133.359C119.825 132.992 119.722 132.863 119.574 132.863H119.352C119.187 132.863 119.084 132.788 119.084 132.654C119.084 132.52 119.175 132.436 119.352 132.436C120.253 132.436 121.29 132.471 122.693 132.471C124.095 132.471 125.281 132.436 126.17 132.436C126.375 132.436 126.461 132.496 126.461 132.654C126.461 132.813 126.375 132.863 126.17 132.863C125.668 132.863 125.6 132.957 125.726 133.205L127.202 136.184L128.639 133.141C128.73 132.947 128.667 132.863 128.473 132.863H128.217C128.04 132.863 127.937 132.798 127.937 132.654C127.937 132.51 128.023 132.436 128.217 132.436C128.53 132.436 128.787 132.471 129.152 132.471C129.517 132.471 129.653 132.436 129.99 132.436C130.195 132.436 130.292 132.496 130.292 132.654C130.292 132.813 130.195 132.863 129.99 132.863C129.665 132.863 129.517 132.972 129.385 133.255L127.282 137.653C127.246 137.753 127.176 137.842 127.081 137.907C126.987 137.973 126.872 138.012 126.752 138.02C126.623 138.014 126.5 137.975 126.398 137.906C126.296 137.838 126.221 137.745 126.182 137.638L124.722 134.779ZM124.306 133.97L123.85 133.091C123.817 133.026 123.763 132.971 123.694 132.934C123.624 132.897 123.544 132.879 123.462 132.883H121.906C121.689 132.883 121.644 132.977 121.701 133.101L123.268 136.114L124.306 133.97Z" fill="#717171"/>
<path d="M138.451 138.04C138.024 138.04 137.555 137.99 137.143 137.99C136.732 137.99 136.433 138.04 136.063 138.04C135.888 138.04 135.81 138 135.81 137.822C135.81 137.643 135.888 137.628 136.063 137.628C136.433 137.628 136.531 137.539 136.531 137.038V134.231C136.551 134.053 136.523 133.873 136.45 133.708C136.377 133.543 136.261 133.399 136.114 133.289C135.865 133.123 135.561 133.049 135.26 133.081C134.875 133.091 134.507 133.24 134.23 133.497C134.116 133.592 134.026 133.712 133.968 133.846C133.91 133.98 133.885 134.126 133.896 134.271V137.038C133.896 137.534 133.978 137.628 134.364 137.628C134.513 137.628 134.601 137.673 134.601 137.822C134.601 137.971 134.513 138.04 134.364 138.04C133.937 138.04 133.494 137.99 133.083 137.99C132.671 137.99 132.321 138.04 131.95 138.04C131.775 138.04 131.693 138 131.693 137.822C131.693 137.643 131.775 137.628 131.95 137.628C132.336 137.628 132.465 137.539 132.465 137.038V133.939C132.465 133.72 132.321 133.596 132.069 133.572C131.816 133.547 131.786 133.512 131.786 133.378C131.786 133.244 131.868 133.205 132.027 133.18C132.447 133.097 132.839 132.913 133.165 132.644C133.219 132.583 133.286 132.533 133.361 132.497C133.437 132.461 133.519 132.44 133.602 132.436C133.788 132.436 133.896 132.56 133.896 132.932V133.056C133.896 133.14 133.988 133.115 134.019 133.091C134.242 132.875 134.509 132.708 134.804 132.6C135.098 132.493 135.413 132.447 135.728 132.466C136.253 132.462 136.77 132.597 137.221 132.858C137.478 133.022 137.682 133.253 137.81 133.524C137.937 133.795 137.983 134.095 137.941 134.39V137.058C137.941 137.584 138.049 137.648 138.456 137.648C138.6 137.648 138.698 137.693 138.698 137.842C138.698 137.99 138.595 138.04 138.451 138.04Z" fill="#717171"/>
<path d="M134.192 133.929C133.734 134.276 133.468 134.005 133.825 133.633C134.123 133.334 134.325 132.954 134.408 132.541C134.266 132.517 134.13 132.464 134.009 132.385C133.888 132.306 133.784 132.204 133.704 132.083C133.638 131.935 133.616 131.77 133.642 131.61C133.668 131.449 133.741 131.3 133.852 131.18C133.962 131.061 134.105 130.976 134.263 130.938C134.421 130.899 134.587 130.907 134.74 130.962C134.865 131.001 134.98 131.066 135.079 131.151C135.177 131.237 135.257 131.342 135.314 131.46C135.37 131.578 135.401 131.706 135.405 131.837C135.41 131.968 135.387 132.098 135.339 132.219C135.155 132.9 134.752 133.501 134.192 133.929V133.929Z" fill="#717171"/>
<path d="M154.108 130.931C154.108 131.281 154.062 131.598 153.838 131.598C153.613 131.598 153.497 131.469 153.261 131.092L153.025 130.694C152.94 130.555 152.818 130.438 152.672 130.355C152.526 130.271 152.36 130.223 152.189 130.215C151.792 130.157 151.391 130.13 150.989 130.134C150.688 130.12 150.388 130.166 150.107 130.269C150.038 130.302 149.98 130.352 149.938 130.414C149.897 130.475 149.873 130.546 149.871 130.619V132.981C149.871 133.153 149.946 133.234 150.107 133.234C150.649 133.247 151.19 133.22 151.727 133.153C151.839 133.132 151.944 133.088 152.035 133.023C152.126 132.959 152.2 132.877 152.252 132.782C152.535 132.244 152.638 132.131 152.754 132.131C152.869 132.131 152.978 132.292 152.978 132.475C152.978 132.917 152.938 133.099 152.938 133.482C152.938 133.864 152.978 134.057 152.978 134.493C152.978 134.682 152.95 134.843 152.754 134.843C152.558 134.843 152.535 134.709 152.252 134.192C152.194 134.099 152.116 134.019 152.023 133.957C151.929 133.895 151.823 133.852 151.71 133.831C151.179 133.769 150.643 133.74 150.107 133.745C150.075 133.745 150.044 133.751 150.014 133.763C149.985 133.775 149.958 133.792 149.936 133.814C149.914 133.835 149.897 133.861 149.885 133.889C149.874 133.917 149.869 133.947 149.871 133.977V136.78C149.871 137.405 150.05 137.534 150.597 137.534C150.839 137.534 150.932 137.615 150.932 137.819C150.932 138.024 150.839 138.04 150.597 138.04C150.217 138.04 149.807 137.986 149.035 137.986C148.262 137.986 147.818 138.04 147.432 138.04C147.196 138.04 147.104 137.997 147.104 137.819C147.104 137.642 147.225 137.534 147.432 137.534C148.009 137.534 148.153 137.405 148.153 136.78V130.592C148.153 130.296 148.014 130.134 147.432 130.134C147.225 130.134 147.104 130.07 147.104 129.871C147.104 129.671 147.236 129.634 147.432 129.634C148.326 129.634 149.271 129.682 150.153 129.682C151.41 129.682 152.171 129.634 153.417 129.634C153.953 129.634 154.103 129.817 154.103 130.323L154.108 130.931Z" fill="#717171"/>
<path d="M158.052 138.04C157.645 138.04 157.248 137.987 156.851 137.987C156.455 137.987 156.102 138.04 155.749 138.04C155.583 138.04 155.509 137.987 155.509 137.807C155.509 137.628 155.583 137.601 155.749 137.601C156.117 137.601 156.239 137.454 156.239 136.973V133.699C156.239 133.457 156.048 133.335 155.833 133.325C155.617 133.314 155.563 133.256 155.563 133.113C155.563 132.971 155.642 132.929 155.793 132.907C156.201 132.847 156.579 132.645 156.871 132.332C156.99 132.2 157.151 132.12 157.322 132.11C157.498 132.11 157.596 132.242 157.596 132.638V136.968C157.596 137.496 157.689 137.596 158.086 137.596C158.223 137.596 158.311 137.66 158.311 137.802C158.311 137.945 158.199 138.04 158.052 138.04ZM156.842 131.566C156.611 131.569 156.389 131.475 156.222 131.303C156.055 131.131 155.958 130.896 155.95 130.648C155.941 130.454 155.986 130.263 156.08 130.098C156.173 129.933 156.31 129.801 156.473 129.721C156.636 129.641 156.818 129.615 156.995 129.647C157.172 129.679 157.335 129.768 157.465 129.902C157.595 130.035 157.684 130.208 157.722 130.397C157.76 130.586 157.744 130.782 157.677 130.962C157.61 131.141 157.494 131.294 157.345 131.402C157.196 131.51 157.021 131.567 156.842 131.566V131.566Z" fill="#717171"/>
<path d="M166.475 138.04C166.048 138.04 165.579 137.99 165.167 137.99C164.755 137.99 164.456 138.04 164.085 138.04C163.91 138.04 163.833 138 163.833 137.822C163.833 137.643 163.91 137.628 164.085 137.628C164.456 137.628 164.554 137.539 164.554 137.038V134.231C164.574 134.053 164.546 133.873 164.473 133.708C164.4 133.543 164.284 133.399 164.137 133.289C163.887 133.123 163.584 133.049 163.282 133.081C162.897 133.091 162.529 133.24 162.252 133.497C162.137 133.592 162.048 133.712 161.989 133.846C161.931 133.98 161.907 134.126 161.917 134.271V137.038C161.917 137.534 161.999 137.628 162.38 137.628C162.53 137.628 162.623 137.673 162.623 137.822C162.623 137.971 162.53 138.04 162.38 138.04C161.953 138.04 161.515 137.99 161.098 137.99C160.681 137.99 160.341 138.04 159.965 138.04C159.795 138.04 159.712 138 159.712 137.822C159.712 137.643 159.795 137.628 159.965 137.628C160.351 137.628 160.48 137.539 160.48 137.038V133.939C160.48 133.72 160.336 133.596 160.083 133.572C159.831 133.547 159.8 133.512 159.8 133.378C159.8 133.244 159.877 133.205 160.042 133.18C160.462 133.097 160.854 132.913 161.18 132.644C161.235 132.583 161.302 132.533 161.377 132.497C161.452 132.461 161.534 132.44 161.618 132.436C161.804 132.436 161.912 132.56 161.912 132.932V133.056C161.912 133.14 162.004 133.115 162.035 133.091C162.257 132.875 162.525 132.707 162.82 132.599C163.115 132.492 163.431 132.446 163.745 132.466C164.271 132.463 164.788 132.598 165.239 132.858C165.497 133.022 165.701 133.253 165.829 133.524C165.956 133.795 166.002 134.095 165.96 134.39V137.058C165.96 137.584 166.068 137.648 166.475 137.648C166.619 137.648 166.717 137.693 166.717 137.842C166.717 137.99 166.619 138.04 166.475 138.04Z" fill="#717171"/>
<path d="M175.111 137.134C175.098 137.212 175.064 137.285 175.011 137.342C174.958 137.4 174.89 137.44 174.815 137.456L174.037 137.779C173.897 137.85 173.747 137.897 173.592 137.918C173.479 137.918 173.41 137.829 173.383 137.679L173.329 137.284C173.329 137.173 173.227 137.156 173.158 137.24C172.892 137.514 172.574 137.726 172.223 137.863C171.873 138 171.498 138.059 171.124 138.035C170.745 138.046 170.368 137.978 170.015 137.834C169.662 137.691 169.34 137.476 169.069 137.201C168.759 136.892 168.515 136.52 168.352 136.109C168.188 135.697 168.109 135.255 168.119 134.81C168.108 134.395 168.181 133.982 168.335 133.599C168.488 133.216 168.718 132.871 169.01 132.586C169.665 131.983 170.516 131.66 171.392 131.68C171.872 131.652 172.35 131.746 172.787 131.952C172.857 131.997 172.954 131.98 172.954 131.763V129.634C172.954 129.328 172.857 129.261 172.535 129.25C172.38 129.25 172.267 129.184 172.267 129.045C172.267 128.906 172.38 128.822 172.519 128.811C172.916 128.764 173.303 128.648 173.662 128.466C173.801 128.353 173.962 128.274 174.134 128.233C174.413 128.233 174.445 128.4 174.445 128.789V136.734C174.445 136.884 174.483 136.995 174.579 136.995C174.676 136.995 174.848 136.706 174.998 136.706C175.148 136.706 175.121 136.834 175.121 136.923L175.111 137.134ZM172.964 133.331C172.964 132.881 172.895 132.603 172.696 132.453C172.362 132.203 171.953 132.085 171.543 132.119C171.258 132.132 170.98 132.217 170.734 132.365C170.487 132.513 170.279 132.72 170.126 132.97C169.791 133.512 169.63 134.15 169.665 134.793C169.637 135.151 169.679 135.51 169.786 135.851C169.894 136.192 170.066 136.507 170.292 136.778C170.619 137.105 171.051 137.293 171.505 137.306C171.971 137.324 172.426 137.153 172.771 136.828C172.833 136.76 172.881 136.68 172.913 136.592C172.944 136.504 172.958 136.41 172.954 136.317L172.964 133.331Z" fill="#717171"/>
<path d="M186.064 132.882C185.993 132.881 185.923 132.894 185.857 132.921C185.791 132.947 185.731 132.986 185.68 133.036C185.497 133.213 185.353 133.427 185.259 133.663L182.399 140.155C182.33 140.364 182.194 140.544 182.012 140.668C181.829 140.792 181.611 140.853 181.391 140.84C180.767 140.84 180.516 140.724 180.516 140.214C180.516 139.805 180.793 139.581 181.391 139.581C181.722 139.581 181.924 139.528 182.026 139.295L182.276 138.763C182.309 138.647 182.318 138.525 182.301 138.405C182.285 138.286 182.243 138.171 182.18 138.067L180.196 133.52C180.004 133.058 179.865 132.904 179.572 132.904C179.38 132.904 179.326 132.834 179.326 132.68C179.326 132.526 179.38 132.447 179.572 132.447C179.977 132.447 180.308 132.484 180.777 132.484C181.343 132.484 181.679 132.447 182.148 132.447C182.34 132.447 182.41 132.484 182.41 132.68C182.41 132.877 182.33 132.904 182.148 132.904C181.967 132.904 181.898 132.904 181.844 133.004C181.791 133.105 181.818 133.164 181.876 133.313L183.258 136.5L184.613 133.392C184.644 133.334 184.658 133.268 184.654 133.203C184.649 133.137 184.626 133.074 184.587 133.02C184.512 132.93 184.362 132.893 184.101 132.893C183.92 132.893 183.829 132.824 183.829 132.67C183.829 132.516 183.909 132.436 184.101 132.436C184.405 132.436 184.725 132.473 185.115 132.473C185.504 132.473 185.734 132.436 186.054 132.436C186.262 132.436 186.331 132.484 186.331 132.67C186.331 132.856 186.283 132.882 186.064 132.882Z" fill="#717171"/>
<path d="M193.792 137.221C193.072 137.756 192.154 138.046 191.208 138.04C190.262 138.034 189.35 137.731 188.639 137.187C188.057 136.665 187.732 135.966 187.732 135.239C187.732 134.512 188.057 133.814 188.639 133.292C189.349 132.747 190.261 132.443 191.207 132.436C192.153 132.429 193.071 132.719 193.792 133.253C194.092 133.513 194.329 133.822 194.492 134.163C194.654 134.503 194.737 134.868 194.737 135.237C194.737 135.605 194.654 135.97 194.492 136.311C194.329 136.651 194.092 136.961 193.792 137.221V137.221ZM192.318 133.218C192.176 133.095 192.008 132.998 191.822 132.934C191.636 132.869 191.438 132.837 191.238 132.841C190.828 132.84 190.434 132.979 190.141 133.228C189.656 133.813 189.395 134.516 189.395 135.237C189.395 135.958 189.656 136.661 190.141 137.246C190.286 137.376 190.462 137.478 190.656 137.544C190.85 137.611 191.058 137.641 191.266 137.633C191.674 137.635 192.067 137.495 192.357 137.246C192.858 136.665 193.128 135.958 193.128 135.232C193.128 134.506 192.858 133.799 192.357 133.218H192.318Z" fill="#717171"/>
<path d="M202.648 137.429C202.235 137.546 201.836 137.692 201.458 137.865C200.815 138.168 200.526 138.05 200.526 137.723V137.561C200.526 137.527 200.526 137.459 200.423 137.517C199.795 137.851 199.031 138.004 198.268 137.948C197.858 137.953 197.451 137.887 197.081 137.753C196.71 137.618 196.386 137.421 196.133 137.175C195.734 136.789 195.599 136.358 195.599 135.405V133.302C195.599 132.95 195.49 132.857 195.065 132.857C194.847 132.857 194.737 132.822 194.737 132.666C194.737 132.509 194.834 132.436 195.065 132.436C195.297 132.436 195.651 132.436 195.914 132.436C196.178 132.436 196.622 132.436 196.918 132.436C197.213 132.436 197.387 132.553 197.387 132.822V135.859C197.315 136.259 197.446 136.665 197.754 136.994C197.908 137.108 198.092 137.195 198.294 137.25C198.496 137.304 198.711 137.326 198.924 137.312C199.172 137.321 199.419 137.289 199.649 137.218C199.879 137.147 200.086 137.039 200.256 136.901C200.455 136.641 200.549 136.341 200.526 136.04V133.302C200.526 132.95 200.403 132.857 199.992 132.857C199.773 132.857 199.657 132.822 199.657 132.666C199.657 132.509 199.76 132.436 199.992 132.436C200.223 132.436 200.571 132.436 200.841 132.436C201.111 132.436 201.542 132.436 201.844 132.436C202.146 132.436 202.307 132.553 202.307 132.822V136.657C202.307 136.901 202.41 136.994 202.609 136.994H202.79C202.976 136.994 203.143 137.043 203.143 137.155C203.143 137.268 202.944 137.356 202.648 137.429Z" fill="#717171"/>
<path d="M207.903 133.83C207.259 133.83 207.15 133.264 206.706 133.264C206.578 133.273 206.455 133.307 206.348 133.363C206.242 133.42 206.157 133.497 206.102 133.587C205.933 133.879 205.864 134.2 205.902 134.519V137.038C205.902 137.534 205.999 137.628 206.546 137.628C206.732 137.628 206.848 137.688 206.848 137.822C206.848 137.956 206.732 138.04 206.546 138.04C206.012 138.04 205.427 137.99 204.912 137.99C204.398 137.99 203.928 138.04 203.459 138.04C203.24 138.04 203.144 137.99 203.144 137.822C203.144 137.653 203.24 137.628 203.459 137.628C204.012 137.628 204.147 137.504 204.147 137.038V133.839C204.147 133.671 204.063 133.572 203.89 133.572H203.709C203.529 133.572 203.407 133.512 203.407 133.388C203.407 133.264 203.51 133.205 203.709 133.18C204.194 133.096 204.639 132.911 204.996 132.644C205.068 132.579 205.157 132.526 205.258 132.49C205.36 132.454 205.47 132.436 205.581 132.436C205.832 132.436 205.896 132.605 205.896 132.932C205.896 133.031 205.98 133.056 206.044 133.016C206.445 132.718 206.973 132.542 207.53 132.52C208.417 132.52 208.745 132.768 208.745 133.195C208.754 133.281 208.738 133.368 208.699 133.449C208.66 133.531 208.597 133.604 208.517 133.665C208.437 133.725 208.34 133.772 208.234 133.8C208.127 133.829 208.014 133.839 207.903 133.83V133.83Z" fill="#717171"/>
<path d="M217.97 137.302C217.422 137.814 216.515 138.04 215.303 138.04C214.644 138.033 213.994 137.9 213.389 137.65C213.051 137.485 212.923 137.32 212.955 136.82L213.006 136.069C213.006 135.66 213.153 135.502 213.414 135.502C213.836 135.502 213.867 136.625 214.365 137.149C214.502 137.283 214.668 137.388 214.85 137.456C215.033 137.525 215.228 137.555 215.424 137.546C215.618 137.552 215.81 137.514 215.985 137.436C216.16 137.357 216.314 137.24 216.433 137.094C216.624 136.853 216.723 136.555 216.713 136.252C216.738 136.02 216.681 135.787 216.55 135.589C216.419 135.392 216.223 135.243 215.992 135.166L214.505 134.641C214.125 134.525 213.794 134.292 213.563 133.98C213.333 133.667 213.216 133.291 213.229 132.908C213.221 132.647 213.277 132.388 213.393 132.151C213.51 131.915 213.683 131.708 213.899 131.548C214.507 131.176 215.222 130.999 215.941 131.041C216.548 131.035 217.152 131.126 217.728 131.31C217.864 131.351 217.984 131.432 218.07 131.541C218.156 131.651 218.204 131.783 218.206 131.92V132.463C218.206 132.854 218.206 133 217.926 133C217.562 133 217.53 132.475 216.949 131.889C216.824 131.775 216.676 131.686 216.513 131.629C216.351 131.571 216.178 131.546 216.005 131.554C215.862 131.56 215.722 131.595 215.593 131.656C215.465 131.717 215.351 131.803 215.258 131.908C215.094 132.113 215.012 132.369 215.029 132.628C215.013 132.837 215.076 133.046 215.206 133.215C215.335 133.385 215.523 133.505 215.737 133.555L217.128 134.013C217.554 134.12 217.927 134.365 218.186 134.705C218.446 135.045 218.574 135.46 218.551 135.88C218.567 136.143 218.523 136.406 218.423 136.652C218.323 136.897 218.168 137.119 217.97 137.302Z" fill="#717171"/>
<path d="M222.369 137.547C222.208 137.707 222.013 137.833 221.798 137.917C221.583 138.002 221.351 138.042 221.119 138.036C220.848 138.052 220.577 138.012 220.324 137.918C220.072 137.824 219.843 137.679 219.655 137.493C219.306 137.01 219.16 136.419 219.248 135.839V132.184C219.253 132.145 219.248 132.106 219.233 132.069C219.219 132.032 219.197 131.999 219.167 131.972C219.138 131.945 219.102 131.925 219.063 131.913C219.024 131.901 218.983 131.897 218.942 131.903C218.761 131.903 218.554 131.861 218.554 131.664C218.554 131.467 218.779 131.39 219.042 131.3C219.332 131.177 219.59 130.995 219.798 130.765C220.006 130.536 220.158 130.266 220.243 129.974C220.324 129.765 220.468 129.634 220.643 129.634C220.818 129.634 221 129.903 221 130.231V131.091C221 131.234 221.081 131.312 221.244 131.312H222.219C222.444 131.312 222.545 131.396 222.545 131.617C222.545 131.837 222.444 131.927 222.219 131.927H221.244C221.068 131.927 221 132.017 221 132.178V136.478C221 137.075 221.15 137.248 221.538 137.248C222.088 137.248 222.238 136.878 222.444 136.836C222.651 136.794 222.757 136.878 222.757 137.015C222.701 137.232 222.563 137.421 222.369 137.547Z" fill="#717171"/>
<path d="M230.837 132.882C230.75 132.88 230.664 132.893 230.584 132.92C230.504 132.946 230.431 132.986 230.369 133.036C230.154 133.215 229.984 133.429 229.87 133.663L226.451 140.155C226.366 140.364 226.202 140.544 225.982 140.668C225.762 140.791 225.5 140.852 225.235 140.841C224.486 140.841 224.191 140.724 224.191 140.214C224.191 139.805 224.524 139.582 225.235 139.582C225.632 139.582 225.875 139.528 226.003 139.295L226.298 138.763C226.381 138.62 226.368 138.413 226.182 138.067L223.807 133.52C223.577 133.058 223.41 132.904 223.058 132.904C222.828 132.904 222.757 132.834 222.757 132.68C222.757 132.526 222.828 132.447 223.058 132.447C223.545 132.447 223.942 132.484 224.505 132.484C225.184 132.484 225.587 132.447 226.15 132.447C226.381 132.447 226.464 132.484 226.464 132.68C226.464 132.877 226.368 132.904 226.15 132.904C225.933 132.904 225.85 132.904 225.786 133.004C225.721 133.105 225.785 133.164 225.818 133.313L227.482 136.5L229.108 133.392C229.146 133.334 229.162 133.268 229.157 133.203C229.151 133.137 229.123 133.074 229.076 133.02C228.987 132.93 228.807 132.893 228.494 132.893C228.18 132.893 228.161 132.824 228.161 132.67C228.161 132.516 228.263 132.436 228.494 132.436C228.859 132.436 229.243 132.473 229.704 132.473C230.165 132.473 230.453 132.436 230.837 132.436C231.086 132.436 231.163 132.484 231.163 132.67C231.163 132.856 231.118 132.882 230.837 132.882Z" fill="#717171"/>
<path d="M233.734 138.04C233.335 138.04 232.884 137.984 232.499 137.984C232.115 137.984 231.754 138.04 231.403 138.04C231.245 138.04 231.163 137.995 231.163 137.793C231.163 137.591 231.245 137.574 231.403 137.574C231.817 137.574 231.927 137.417 231.927 136.907V129.978C231.927 129.675 231.817 129.563 231.552 129.523C231.379 129.523 231.288 129.428 231.288 129.299C231.288 129.17 231.365 129.108 231.514 129.08C231.915 128.99 232.29 128.779 232.6 128.469C232.778 128.295 232.86 128.233 232.999 128.233C233.138 128.233 233.259 128.362 233.259 128.794V136.923C233.259 137.484 233.359 137.591 233.739 137.591C233.879 137.591 233.965 137.642 233.965 137.81C233.965 137.978 233.874 138.04 233.734 138.04Z" fill="#717171"/>
<path d="M240.423 134.199H237.074C237.029 134.196 236.985 134.213 236.951 134.247C236.917 134.281 236.895 134.33 236.889 134.383C236.861 134.781 236.899 135.183 237.002 135.564C237.104 135.944 237.27 136.297 237.489 136.6C237.659 136.798 237.861 136.954 238.083 137.059C238.304 137.164 238.541 137.216 238.779 137.211C239.29 137.214 239.789 137.036 240.213 136.698C240.361 136.546 240.536 136.437 240.726 136.38C240.859 136.38 240.895 136.435 240.895 136.545C240.895 136.771 240.71 137.046 240.326 137.388C239.794 137.836 239.154 138.063 238.503 138.036C237.699 138.082 236.91 137.758 236.3 137.132C236 136.803 235.762 136.402 235.601 135.956C235.44 135.509 235.361 135.027 235.368 134.541C235.353 134.062 235.424 133.584 235.576 133.139C235.728 132.695 235.957 132.294 236.249 131.964C236.856 131.319 237.651 130.988 238.462 131.041C239.149 130.991 239.827 131.26 240.352 131.792C240.552 132.01 240.71 132.277 240.817 132.574C240.923 132.871 240.974 133.192 240.966 133.515C240.976 133.604 240.968 133.695 240.945 133.781C240.921 133.866 240.882 133.944 240.83 134.01C240.778 134.075 240.715 134.126 240.644 134.159C240.574 134.192 240.499 134.205 240.423 134.199ZM239.179 132.061C239.086 131.906 238.962 131.78 238.818 131.696C238.674 131.612 238.514 131.571 238.354 131.579C238.168 131.577 237.984 131.625 237.816 131.719C237.648 131.813 237.499 131.951 237.381 132.122C237.135 132.491 236.984 132.936 236.946 133.405C236.946 133.521 236.987 133.619 237.13 133.619H238.979C239.297 133.619 239.414 133.509 239.414 133.222C239.434 132.817 239.353 132.413 239.184 132.061H239.179Z" fill="#717171"/>
</svg>
