<svg width="317" height="68" viewBox="0 0 317 68" fill="none" xmlns="http://www.w3.org/2000/svg">
<path d="M23.8433 27.7051L30.3024 7.72653C30.3024 7.72653 29.242 7.44672 27.743 6.92627L21.6445 27.7051H23.8433Z" fill="#231815"/>
<path d="M19.7315 27.7052L25.9738 6.69409C22.3429 5.39432 17.0629 3.01513 16.455 0H12.9795C12.3716 3.02071 7.09427 5.3999 3.46338 6.69409L9.70295 27.7052H19.7315ZM8.39452 4.53804L14.7268 17.4911L21.0481 4.53804L23.5396 11.0146L14.7186 17.4995L5.8976 11.0229L8.39452 4.53804Z" fill="#231815"/>
<path d="M8.65786 27.7051L2.56769 6.92627C1.06537 7.44112 0 7.72653 0 7.72653L6.47317 27.7051H8.65786Z" fill="#231815"/>
<path d="M6.39999 27.7051L0 44.317L4.17975 47.6182L8.65786 27.7051H6.39999Z" fill="#231815"/>
<path d="M10.4586 27.7051L6.06055 47.9718L15.1513 55.4102L24.2421 47.9718L19.844 27.7051H10.4586Z" fill="#231815"/>
<path d="M21.6445 27.7051L26.1226 47.6182L30.3024 44.317L23.9024 27.7051H21.6445Z" fill="#231815"/>
<path d="M15.1513 55.4102C15.1513 55.4102 13.359 61.8523 6.06055 65.7996H24.2421C16.8734 61.8523 15.1513 55.4102 15.1513 55.4102Z" fill="#231815"/>
<path d="M96.1343 8.27979V12.7959H85.5154V21.4444H94.9481V25.4751H85.5154V33.2316C85.4569 33.9615 85.6578 34.6887 86.083 35.2864C86.303 35.529 86.576 35.7182 86.881 35.8395C87.186 35.9608 87.5148 36.0111 87.8424 35.9864H96.1172V40.5026H84.3406C82.1385 40.5026 80.5153 39.9193 79.471 38.7526C78.4267 37.5859 77.9102 35.9055 77.9216 33.7114V8.27979H96.1343Z" fill="#231815"/>
<path d="M113.895 29.0461H121.339V33.7123C121.381 34.6115 121.246 35.5103 120.943 36.3561C120.641 37.2018 120.175 37.9777 119.575 38.6384C118.395 39.8812 116.685 40.5026 114.444 40.5026H107.239C104.994 40.5026 103.284 39.8812 102.108 38.6384C101.508 37.9777 101.043 37.2018 100.74 36.3561C100.437 35.5103 100.303 34.6115 100.344 33.7123V15.0701C100.303 14.1708 100.437 13.2721 100.74 12.4263C101.043 11.5805 101.508 10.8047 102.108 10.144C103.284 8.90122 104.994 8.27979 107.239 8.27979H114.45C116.691 8.27979 118.401 8.90122 119.58 10.144C120.181 10.8047 120.646 11.5805 120.949 12.4263C121.252 13.2721 121.386 14.1708 121.344 15.0701V18.7985H113.895V15.7706C113.93 14.8236 113.646 13.893 113.091 13.1324C112.815 12.8034 112.472 12.5391 112.086 12.3579C111.7 12.1768 111.28 12.083 110.855 12.083C110.431 12.083 110.011 12.1768 109.625 12.3579C109.239 12.5391 108.896 12.8034 108.62 13.1324C108.067 13.8937 107.785 14.8243 107.821 15.7706V32.7745C107.798 33.7542 108.077 34.7165 108.62 35.5257C108.878 35.883 109.214 36.1735 109.603 36.3737C109.991 36.574 110.42 36.6783 110.855 36.6783C111.291 36.6783 111.72 36.574 112.108 36.3737C112.497 36.1735 112.833 35.883 113.091 35.5257C113.635 34.717 113.916 33.7547 113.895 32.7745V29.0461Z" fill="#231815"/>
<path d="M134.521 25.4717V40.5026H126.956V8.27979H134.521V21.4431H140.412V8.27979H147.971V40.5026H140.412V25.4717H134.521Z" fill="#231815"/>
<path d="M156.587 8.27979C159.127 8.27979 161.181 9.70914 162.749 12.5679L169.897 25.404V8.27979H175.991V40.5026H174.39C171.235 40.5026 168.931 39.0657 167.476 36.1919L159.668 21.7421V40.5026H153.575V8.27979H156.587Z" fill="#231815"/>
<path d="M195.689 8.27979C197.936 8.27979 199.65 8.90119 200.833 10.144C201.435 10.8047 201.902 11.5805 202.205 12.4263C202.509 13.2721 202.644 14.1708 202.602 15.0701V33.7123C202.644 34.6115 202.509 35.5102 202.205 36.356C201.902 37.2018 201.435 37.9777 200.833 38.6383C199.65 39.8811 197.936 40.5026 195.689 40.5026H188.514C186.26 40.5026 184.547 39.8811 183.376 38.6383C182.773 37.9781 182.305 37.2025 182 36.3567C181.696 35.5109 181.56 34.6119 181.601 33.7123V15.0701C181.56 14.1704 181.696 13.2715 182 12.4257C182.305 11.5799 182.773 10.8042 183.376 10.144C184.551 8.90119 186.264 8.27979 188.514 8.27979H195.689ZM192.107 36.6894C192.545 36.7052 192.979 36.6064 193.369 36.4026C193.759 36.1989 194.09 35.8969 194.332 35.5257C194.877 34.717 195.159 33.7547 195.138 32.7745V15.7706C195.173 14.8236 194.888 13.893 194.332 13.1324C194.055 12.8034 193.711 12.5391 193.324 12.3579C192.937 12.1768 192.516 12.0829 192.09 12.0829C191.664 12.0829 191.243 12.1768 190.856 12.3579C190.47 12.5391 190.126 12.8034 189.849 13.1324C189.297 13.8949 189.015 14.8246 189.048 15.7706V32.7745C189.028 33.7537 189.308 34.7152 189.849 35.5257C190.098 35.9017 190.438 36.2064 190.836 36.4102C191.235 36.614 191.678 36.7102 192.124 36.6894H192.107Z" fill="#231815"/>
<path d="M237.634 40.5026H230.073V21.7421L222.136 40.5026L214.194 21.7421V40.5026H208.213V8.27979H210.719C213.678 8.27979 215.853 9.70914 217.243 12.5679L223.072 25.3419L228.599 12.5792C229.995 9.71855 232.164 8.29108 235.129 8.29108H237.634V40.5026Z" fill="#231815"/>
<path d="M251.196 28.7991V40.4913H243.238V8.27979H258.276C260.671 8.27979 262.5 8.9014 263.761 10.1447C264.402 10.8056 264.9 11.5817 265.224 12.4278C265.547 13.2738 265.691 14.1729 265.646 15.0724V40.5026H257.689V28.7991H251.196ZM257.689 24.7642V15.9879C257.711 15.0057 257.41 14.0416 256.829 13.2302C256.57 12.86 256.216 12.5588 255.801 12.3551C255.386 12.1514 254.924 12.0519 254.457 12.0661H251.196V24.7642H257.689Z" fill="#231815"/>
<path d="M292.265 15.0522V33.7075C292.31 34.6074 292.166 35.5067 291.842 36.3531C291.518 37.1995 291.021 37.9759 290.379 38.637C289.118 39.8807 287.29 40.5026 284.894 40.5026H269.857V8.27979H284.894C287.29 8.27979 289.118 8.90162 290.379 10.1453C291.018 10.8037 291.514 11.5764 291.837 12.4187C292.161 13.261 292.306 14.1561 292.265 15.0522ZM284.307 32.7691V15.7532C284.344 14.8056 284.041 13.8743 283.448 13.1132C283.17 12.7692 282.809 12.494 282.396 12.311C281.984 12.128 281.531 12.0425 281.076 12.0617H277.814V36.6867H281.076C281.543 36.7025 282.006 36.6037 282.421 36.3998C282.836 36.1958 283.19 35.8937 283.448 35.5222C284.029 34.7129 284.33 33.7499 284.307 32.7691V32.7691Z" fill="#231815"/>
<path d="M316.089 8.27979V12.7959H305.497V21.4444H314.912V25.4751H305.497V33.2316C305.438 33.9615 305.639 34.6887 306.063 35.2864C306.281 35.5289 306.553 35.7181 306.856 35.8394C307.159 35.9608 307.486 36.0111 307.812 35.9864H316.072V40.5026H304.308C302.111 40.5026 300.49 39.9193 299.445 38.7526C298.403 37.584 297.876 35.93 297.876 33.717V8.27979H316.089Z" fill="#231815"/>
<path d="M68.1144 39.1016H54.1045V40.5026H68.1144V39.1016Z" fill="#231815"/>
<path d="M56.3919 16.686L55.5054 37.7009H65.3123L64.4258 16.686H56.3919ZM61.8488 20.4721C61.8488 20.7643 61.764 21.0499 61.6052 21.2928C61.4465 21.5356 61.2208 21.7248 60.9569 21.8364C60.693 21.9479 60.4026 21.9768 60.1226 21.9194C59.8426 21.862 59.5856 21.7208 59.384 21.5138C59.1825 21.3068 59.0455 21.0433 58.9905 20.7566C58.9354 20.4699 58.9648 20.1729 59.0748 19.9033C59.1849 19.6337 59.3706 19.4035 59.6086 19.242C59.8466 19.0805 60.126 18.9949 60.4116 18.996C60.7908 19.0004 61.153 19.1581 61.4191 19.4346C61.6852 19.7111 61.8337 20.084 61.8322 20.4721H61.8488Z" fill="#231815"/>
<path d="M42.8946 15.8711C42.3986 15.8555 41.9151 15.6528 41.4956 15.2847L42.0154 19.4876C42.2712 19.2276 42.5778 19.0818 42.8946 19.0695C43.2115 19.0818 43.5181 19.2276 43.7739 19.4876L44.2976 15.2847C43.8765 15.6523 43.3918 15.8549 42.8946 15.8711V15.8711Z" fill="#231815"/>
<path d="M40.5921 21.136C40.5921 21.0472 40.621 20.9711 40.6251 20.8887L38.6938 23.1089V27.987L40.5384 30.6956L40.5178 24.5108L41.4958 23.3943C41.2267 23.1782 41.0006 22.8542 40.8416 22.4566C40.6825 22.0591 40.5963 21.6027 40.5921 21.136V21.136Z" fill="#231815"/>
<path d="M45.6987 8.27979C46.1332 8.70797 46.4826 9.2436 46.7224 9.84882C46.9622 10.454 47.0866 11.1141 47.0866 11.7823C47.0866 12.4505 46.9622 13.1105 46.7224 13.7157C46.4826 14.3209 46.1332 14.8566 45.6987 15.2847H52.7037V8.27979H45.6987Z" fill="#231815"/>
<path d="M42.2885 15.1289C42.4838 15.2105 42.6863 15.2628 42.8915 15.2847C43.629 15.257 44.3302 14.8788 44.8519 14.2272C45.3736 13.5757 45.6765 12.7 45.6987 11.779C45.6987 11.3189 45.626 10.8634 45.4849 10.4384C45.3438 10.0135 45.1369 9.62743 44.8762 9.30242C44.6154 8.9774 44.3059 8.71975 43.9654 8.54428C43.6248 8.36881 43.2599 8.27894 42.8915 8.27979C42.1493 8.28151 41.4379 8.65097 40.9136 9.30701C40.3892 9.96306 40.0947 10.8521 40.0947 11.779C40.1027 12.603 40.3482 13.3959 40.7861 14.0123C41.1743 14.5817 41.7026 14.9744 42.2885 15.1289V15.1289ZM42.3613 10.6949C42.5111 10.5459 42.691 10.4516 42.8811 10.4222C43.0305 10.4093 43.1803 10.4349 43.3214 10.4974C43.4625 10.5599 43.5918 10.658 43.7012 10.7856C43.8107 10.9131 43.898 11.0674 43.9576 11.2389C44.0173 11.4104 44.0481 11.5953 44.0481 11.7823C44.0481 11.9692 44.0173 12.1542 43.9576 12.3256C43.898 12.4971 43.8107 12.6514 43.7012 12.779C43.5918 12.9065 43.4625 13.0046 43.3214 13.0671C43.1803 13.1296 43.0305 13.1553 42.8811 13.1424C42.6456 13.1529 42.4142 13.0631 42.2249 12.8878C42.0356 12.7125 41.8996 12.4621 41.8391 12.1777C41.7787 11.8932 41.7975 11.5915 41.8923 11.3221C41.9872 11.0527 42.1525 10.8315 42.3613 10.6949V10.6949Z" fill="#231815"/>
<path d="M45.6369 21.1364C45.6319 21.6032 45.5048 22.0599 45.2689 22.458C45.0331 22.8561 44.6974 23.1808 44.2974 23.3976L45.7475 24.5154V30.6956L48.5003 27.9962V23.1117L45.6185 20.8887C45.5939 20.9712 45.6369 21.0474 45.6369 21.1364Z" fill="#231815"/>
<path d="M43.9683 21.4983C43.8524 21.3171 43.6943 21.167 43.5076 21.0608C43.3209 20.9546 43.1112 20.8955 42.8966 20.8887C42.6824 20.8974 42.4734 20.9572 42.287 21.0633C42.1006 21.1693 41.9422 21.3184 41.8249 21.4983V21.4983C41.633 21.7186 41.5175 21.9953 41.4956 22.2869C41.5032 22.6182 41.6309 22.9354 41.8548 23.1793C42.0787 23.4232 42.3835 23.5772 42.7124 23.6124C42.785 23.6124 42.824 23.6907 42.8966 23.6907C42.9692 23.6907 43.0138 23.6236 43.0808 23.6124C43.4096 23.5772 43.7145 23.4232 43.9384 23.1793C44.1623 22.9354 44.29 22.6182 44.2976 22.2869C44.2761 21.9952 44.1605 21.7184 43.9683 21.4983V21.4983Z" fill="#231815"/>
<path d="M72.3174 8.27979H54.1045V15.2847H72.3174V8.27979Z" fill="#231815"/>
<path d="M80.7214 63.0535C80.6908 63.5005 80.5784 63.6564 80.1237 63.8747C79.4434 64.196 78.6969 64.3457 77.9476 64.3113C77.3653 64.3491 76.782 64.2561 76.2391 64.0387C75.6961 63.8213 75.2069 63.4849 74.8061 63.0535C74.438 62.6706 74.1518 62.2143 73.9654 61.7134C73.7791 61.2125 73.6966 60.6778 73.7231 60.1428C73.6973 59.6036 73.7841 59.0649 73.9778 58.5623C74.1716 58.0598 74.4678 57.6046 74.8469 57.227C75.2896 56.7883 75.8155 56.4459 76.3925 56.2207C76.9695 55.9956 77.5855 55.8923 78.203 55.9172C78.8434 55.9118 79.4797 56.0208 80.0829 56.2395C80.4405 56.385 80.5579 56.4838 80.5937 56.9048L80.6857 57.726C80.7265 58.0482 80.6346 58.1626 80.5018 58.1626C80.1697 58.1626 80.0931 57.6792 79.4137 56.9464C79.2478 56.7614 79.042 56.6181 78.8124 56.5279C78.5828 56.4377 78.3357 56.403 78.0907 56.4266C77.6835 56.4487 77.287 56.5668 76.9324 56.7715C76.5778 56.9763 76.2748 57.2621 76.0474 57.6064C75.5742 58.3648 75.3358 59.2502 75.3629 60.148C75.3278 61.0183 75.5387 61.8806 75.9707 62.6325C76.1741 63.0015 76.4708 63.3085 76.8301 63.5214C77.1894 63.7344 77.5982 63.8456 78.014 63.8435C78.2656 63.8622 78.5181 63.8255 78.7543 63.7358C78.9906 63.6461 79.2051 63.5055 79.3831 63.3237C79.9501 62.7468 80.2974 61.8113 80.4507 61.8113C80.7061 61.8113 80.7316 61.8736 80.7214 62.2427V63.0535Z" fill="#231815"/>
<path d="M86.8556 60.1094C86.2162 60.1094 86.1075 59.544 85.6663 59.544C85.5386 59.5524 85.4159 59.5866 85.3105 59.6432C85.2051 59.6997 85.1205 59.7767 85.0652 59.8664C84.8973 60.1589 84.8291 60.4799 84.867 60.7987V63.318C84.867 63.8139 84.9629 63.9082 85.5064 63.9082C85.6919 63.9082 85.807 63.9677 85.807 64.1016C85.807 64.2355 85.6919 64.3198 85.5064 64.3198C84.9757 64.3198 84.3939 64.2702 83.8824 64.2702C83.3708 64.2702 82.9041 64.3198 82.4373 64.3198C82.2263 64.3198 82.124 64.2702 82.124 64.1016C82.124 63.933 82.2263 63.9082 82.4373 63.9082C82.9872 63.9082 83.1215 63.7842 83.1215 63.318V60.1193C83.1215 59.9507 83.0384 59.8515 82.8657 59.8515H82.6867C82.5077 59.8515 82.3862 59.792 82.3862 59.668C82.3862 59.544 82.4885 59.4845 82.6867 59.4597C83.18 59.3805 83.6344 59.1949 83.9975 58.9241C84.0691 58.8587 84.1583 58.8061 84.2587 58.7701C84.3592 58.7341 84.4686 58.7156 84.5793 58.7158C84.8287 58.7158 84.8926 58.8844 84.8926 59.2117C84.8926 59.3109 84.9757 59.3357 85.0397 59.296C85.4387 58.9979 85.9633 58.8218 86.5167 58.8001C87.3991 58.8001 87.7251 59.0481 87.7251 59.4746C87.7351 59.5634 87.7189 59.6527 87.678 59.736C87.637 59.8193 87.5723 59.8943 87.4886 59.9553C87.4049 60.0164 87.3045 60.062 87.1949 60.0887C87.0852 60.1154 86.9692 60.1224 86.8556 60.1094V60.1094Z" fill="#231815"/>
<path d="M92.7899 60.4793H89.4373C89.3927 60.4759 89.3486 60.493 89.3143 60.5271C89.28 60.5612 89.2579 60.6097 89.2527 60.6626C89.2215 61.0614 89.2585 61.4635 89.3616 61.8447C89.4647 62.2259 89.6317 62.5781 89.8525 62.88C90.0223 63.0784 90.2235 63.2346 90.4444 63.3394C90.6653 63.4443 90.9015 63.4958 91.1392 63.4909C91.6517 63.4953 92.1534 63.3166 92.5797 62.9778C92.7268 62.8245 92.9026 62.7156 93.0924 62.6601C93.2205 62.6601 93.2615 62.7151 93.2615 62.8251C93.2615 63.0511 93.0719 63.326 92.6925 63.6681C92.1595 64.1148 91.5188 64.3422 90.8675 64.3156C90.0628 64.3615 89.2738 64.038 88.6632 63.4115C88.362 63.0838 88.1229 62.6832 87.962 62.2366C87.8011 61.7899 87.7221 61.3074 87.7302 60.8214C87.7144 60.3422 87.7844 59.8645 87.9355 59.42C88.0867 58.9755 88.3155 58.5745 88.6068 58.2436C89.2168 57.6015 90.0138 57.2703 90.8265 57.3212C91.5134 57.2696 92.1902 57.5392 92.713 58.0725C92.9142 58.2894 93.0735 58.5557 93.1797 58.8532C93.2859 59.1506 93.3366 59.4721 93.3282 59.7952C93.3373 59.884 93.33 59.9741 93.3067 60.0591C93.2834 60.1441 93.2447 60.222 93.1933 60.2873C93.142 60.3525 93.0793 60.4036 93.0095 60.4368C92.9398 60.47 92.8649 60.4845 92.7899 60.4793ZM91.5391 58.3413C91.4468 58.1845 91.3227 58.0581 91.1784 57.9737C91.0342 57.8893 90.8743 57.8498 90.7137 57.8587C90.5284 57.8569 90.345 57.9049 90.1773 57.999C90.0096 58.0931 89.8618 58.231 89.7449 58.4024C89.4993 58.7719 89.3465 59.2166 89.304 59.6852C89.304 59.8013 89.345 59.899 89.4937 59.899H91.3443C91.6621 59.899 91.78 59.7891 91.78 59.502C91.7982 59.0952 91.7143 58.6911 91.5391 58.3413Z" fill="#231815"/>
<path d="M101.259 63.9457C100.942 64.1316 100.553 64.2328 100.152 64.2334C99.931 64.2207 99.7208 64.1574 99.5495 64.0519C99.3781 63.9464 99.2539 63.8038 99.1936 63.6434C99.1936 63.5703 99.1288 63.5703 99.0447 63.6434C98.7334 63.8733 98.3619 64.0519 97.954 64.1677C97.546 64.2836 97.1105 64.3342 96.6751 64.3163C95.5357 64.3163 94.7329 63.9408 94.7329 63.1363C94.7329 62.1611 95.7752 61.7418 97.096 61.3322L98.5461 60.8837C98.8245 60.8008 98.8957 60.5862 98.8957 60.3571V59.9329C98.8957 59.5379 98.7663 59.1137 98.1188 59.1137C97.4714 59.1137 97.0442 59.3819 96.7787 59.9719C96.7032 60.2017 96.51 60.3998 96.2414 60.5228C95.9972 60.6352 95.7182 60.6974 95.4321 60.7032C95.0307 60.7032 94.7847 60.6106 94.7847 60.3083C94.8291 60.1233 94.9262 59.9478 95.0692 59.7938C95.2123 59.6398 95.3979 59.5109 95.6134 59.416C96.4366 58.9534 97.4416 58.7114 98.4685 58.7285C98.7887 58.6993 99.1136 58.7206 99.4224 58.7911C99.7311 58.8616 100.017 58.9798 100.262 59.1381C100.419 59.2834 100.537 59.4511 100.607 59.6311C100.677 59.8112 100.698 60 100.67 60.1864V63.1119C100.67 63.4728 100.734 63.5703 100.89 63.5703C101.188 63.5703 101.44 63.3265 101.537 63.3265C101.634 63.3265 101.738 63.3752 101.738 63.4728C101.738 63.5703 101.615 63.7507 101.259 63.9457ZM98.8763 61.576C98.8763 61.4395 98.8051 61.3712 98.6238 61.4298L97.4973 61.7808C97.219 61.8737 96.9843 62.0276 96.8237 62.2224C96.6632 62.4172 96.5844 62.644 96.5975 62.873C96.5887 62.9664 96.6048 63.0602 96.6449 63.1489C96.685 63.2375 96.7482 63.3192 96.8308 63.3892C96.9135 63.4592 97.0139 63.516 97.1261 63.5563C97.2384 63.5966 97.3602 63.6196 97.4844 63.6239C97.692 63.631 97.899 63.6032 98.0905 63.5425C98.282 63.4817 98.4532 63.3896 98.5915 63.2729C98.7994 63.0795 98.9013 62.8335 98.8763 62.5853V61.576Z" fill="#231815"/>
<path d="M105.571 63.8265C105.408 63.986 105.213 64.1118 104.997 64.1961C104.781 64.2804 104.549 64.3213 104.316 64.3162C104.045 64.3319 103.773 64.2915 103.519 64.1977C103.266 64.1039 103.037 63.9589 102.848 63.7727C102.498 63.2901 102.352 62.6992 102.44 62.1185V58.4636C102.44 58.2725 102.327 58.1829 102.127 58.1829C101.926 58.1829 101.738 58.1411 101.738 57.944C101.738 57.747 101.97 57.6693 102.227 57.5798C102.519 57.4581 102.778 57.2759 102.987 57.0466C103.195 56.8172 103.347 56.5464 103.432 56.254C103.454 56.1641 103.506 56.0831 103.579 56.0222C103.652 55.9613 103.743 55.9233 103.839 55.9136C104.103 55.9136 104.197 56.1823 104.197 56.5108V57.3707C104.197 57.5141 104.278 57.5917 104.442 57.5917H105.414C105.646 57.5917 105.746 57.6753 105.746 57.8963C105.746 58.1173 105.646 58.2068 105.414 58.2068H104.429C104.247 58.2068 104.184 58.2964 104.184 58.4577V62.7575C104.184 63.3547 104.329 63.5279 104.718 63.5279C105.276 63.5279 105.42 63.1576 105.633 63.1158C105.847 63.074 105.941 63.1576 105.941 63.295C105.89 63.5094 105.758 63.6985 105.571 63.8265Z" fill="#231815"/>
<path d="M112.269 60.4793H108.082C108.026 60.4759 107.971 60.493 107.928 60.5271C107.885 60.5612 107.858 60.6097 107.851 60.6626C107.812 61.0614 107.858 61.4635 107.987 61.8447C108.116 62.2259 108.325 62.5781 108.6 62.88C108.812 63.0787 109.063 63.235 109.339 63.3399C109.615 63.4448 109.91 63.4961 110.207 63.4909C110.847 63.4931 111.473 63.3145 112.006 62.9778C112.189 62.8235 112.409 62.7144 112.647 62.6601C112.807 62.6601 112.858 62.7151 112.858 62.8251C112.858 63.0511 112.621 63.326 112.141 63.6681C111.478 64.1156 110.679 64.3431 109.868 64.3156C108.863 64.3615 107.878 64.038 107.115 63.4115C106.738 63.0844 106.438 62.684 106.236 62.2373C106.034 61.7906 105.934 61.3079 105.943 60.8214C105.924 60.3418 106.013 59.8637 106.203 59.4192C106.393 58.9747 106.68 58.574 107.045 58.2436C107.806 57.6015 108.802 57.2703 109.817 57.3212C110.675 57.2696 111.52 57.5392 112.173 58.0725C112.424 58.2894 112.623 58.5557 112.756 58.8532C112.888 59.1506 112.952 59.4721 112.941 59.7952C112.953 59.884 112.943 59.9741 112.914 60.0591C112.885 60.1441 112.837 60.222 112.773 60.2873C112.709 60.3525 112.63 60.4036 112.543 60.4368C112.456 60.47 112.362 60.4845 112.269 60.4793ZM110.707 58.3413C110.591 58.1849 110.436 58.0588 110.256 57.9744C110.076 57.8901 109.876 57.8503 109.676 57.8587C109.444 57.8565 109.215 57.9042 109.006 57.9984C108.796 58.0925 108.612 58.2306 108.466 58.4024C108.159 58.7719 107.968 59.2166 107.915 59.6852C107.915 59.8013 107.967 59.899 108.152 59.899H110.476C110.873 59.899 111.02 59.7891 111.02 59.502C111.039 59.0939 110.93 58.6898 110.707 58.3413Z" fill="#231815"/>
<path d="M123.856 59.1621C123.785 59.1603 123.713 59.173 123.646 59.1994C123.58 59.2259 123.519 59.2656 123.468 59.3161C123.289 59.4951 123.148 59.7083 123.054 59.943L120.21 66.4349C120.142 66.6437 120.006 66.824 119.824 66.9479C119.643 67.0718 119.425 67.1324 119.206 67.1202C118.584 67.1202 118.334 67.0034 118.334 66.4934C118.334 66.0843 118.616 65.8612 119.206 65.8612C119.535 65.8612 119.737 65.8081 119.838 65.5743L120.088 65.0431C120.157 64.8996 120.146 64.6924 119.992 64.3471L118.021 59.7996C117.824 59.3374 117.691 59.1833 117.399 59.1833C117.207 59.1833 117.149 59.1143 117.149 58.9602C117.149 58.8061 117.207 58.7265 117.399 58.7265C117.803 58.7265 118.132 58.7636 118.6 58.7636C119.163 58.7636 119.498 58.7265 119.966 58.7265C120.157 58.7265 120.226 58.7636 120.226 58.9602C120.226 59.1568 120.146 59.1833 119.966 59.1833C119.785 59.1833 119.716 59.1833 119.658 59.2843C119.599 59.3852 119.658 59.4436 119.689 59.5924L121.071 62.7799L122.421 59.6721C122.455 59.6159 122.473 59.5516 122.473 59.4861C122.473 59.4206 122.455 59.3564 122.421 59.3002C122.347 59.2099 122.198 59.1727 121.938 59.1727C121.757 59.1727 121.661 59.1036 121.661 58.9496C121.661 58.7955 121.741 58.7158 121.938 58.7158C122.241 58.7158 122.554 58.753 122.942 58.753C123.33 58.753 123.564 58.7158 123.883 58.7158C124.085 58.7158 124.154 58.7636 124.154 58.9496C124.154 59.1355 124.101 59.1621 123.856 59.1621Z" fill="#231815"/>
<path d="M131.61 63.5035C130.89 64.0363 129.973 64.326 129.028 64.3197C128.083 64.3134 127.172 64.0115 126.462 63.4692C125.88 62.9476 125.555 62.2496 125.555 61.523C125.555 60.7964 125.88 60.0984 126.462 59.5768C127.169 59.029 128.08 58.7232 129.027 58.716C129.974 58.7087 130.892 59.0007 131.61 59.5377C131.911 59.7971 132.15 60.106 132.313 60.4463C132.476 60.7867 132.56 61.1518 132.56 61.5206C132.56 61.8893 132.476 62.2545 132.313 62.5948C132.15 62.9352 131.911 63.244 131.61 63.5035V63.5035ZM130.136 59.5034C129.995 59.3809 129.827 59.2843 129.642 59.2195C129.458 59.1548 129.26 59.1231 129.061 59.1264C128.853 59.1221 128.647 59.1541 128.453 59.2205C128.26 59.2869 128.084 59.3865 127.936 59.5132C127.45 60.0974 127.189 60.7998 127.189 61.5206C127.189 62.2413 127.45 62.9438 127.936 63.528C128.081 63.6578 128.257 63.7594 128.451 63.826C128.645 63.8927 128.853 63.9229 129.061 63.9148C129.469 63.9151 129.861 63.7763 130.152 63.528C130.696 62.9724 130.969 62.2537 130.912 61.5255C130.943 61.1604 130.891 60.7936 130.758 60.4465C130.624 60.0993 130.413 59.7787 130.136 59.5034V59.5034Z" fill="#231815"/>
<path d="M139.147 63.7091C138.805 63.8271 138.475 63.9728 138.161 64.1443C137.625 64.4476 137.384 64.3302 137.384 64.0025V63.8411C137.384 63.8069 137.384 63.7384 137.298 63.7971C136.777 64.1324 136.142 64.2852 135.508 64.2275C135.166 64.234 134.827 64.1675 134.518 64.0333C134.209 63.8992 133.939 63.7011 133.728 63.4548C133.396 63.0684 133.284 62.638 133.284 61.6844V59.5814C133.284 59.2293 133.187 59.1364 132.839 59.1364C132.657 59.1364 132.56 59.1022 132.56 58.9457C132.56 58.7892 132.64 58.7158 132.839 58.7158C133.037 58.7158 133.326 58.7158 133.546 58.7158C133.766 58.7158 134.13 58.7158 134.377 58.7158C134.623 58.7158 134.774 58.8332 134.774 59.1022V62.1392C134.715 62.5383 134.822 62.943 135.074 63.2738C135.202 63.3874 135.355 63.4746 135.524 63.5294C135.692 63.5843 135.871 63.6055 136.049 63.5917C136.256 63.6007 136.462 63.5687 136.653 63.4977C136.845 63.4268 137.017 63.3187 137.159 63.1809C137.325 62.9203 137.403 62.621 137.384 62.3202V59.5814C137.384 59.2293 137.287 59.1364 136.939 59.1364C136.757 59.1364 136.66 59.1022 136.66 58.9457C136.66 58.7892 136.746 58.7158 136.939 58.7158C137.132 58.7158 137.427 58.7158 137.646 58.7158C137.866 58.7158 138.23 58.7158 138.482 58.7158C138.734 58.7158 138.874 58.8332 138.874 59.1022V62.9364C138.874 63.1809 138.954 63.2738 139.12 63.2738H139.27C139.426 63.2738 139.565 63.3227 139.565 63.4352C139.565 63.5477 139.399 63.6357 139.147 63.7091Z" fill="#231815"/>
<path d="M145.72 60.1094C145.077 60.1094 144.975 59.544 144.525 59.544C144.397 59.5518 144.274 59.5858 144.169 59.6425C144.064 59.6991 143.981 59.7764 143.927 59.8664C143.75 60.1569 143.679 60.4793 143.722 60.7987V63.318C143.722 63.8139 143.825 63.9082 144.364 63.9082C144.551 63.9082 144.666 63.9677 144.666 64.1016C144.666 64.2355 144.551 64.3198 144.364 64.3198C143.831 64.3198 143.253 64.2702 142.732 64.2702C142.212 64.2702 141.75 64.3198 141.287 64.3198C141.069 64.3198 140.966 64.2702 140.966 64.1016C140.966 63.933 141.069 63.9082 141.287 63.9082C141.833 63.9082 141.968 63.7842 141.968 63.318V60.1193C141.968 59.9507 141.884 59.8515 141.717 59.8515H141.531C141.351 59.8515 141.236 59.792 141.236 59.668C141.236 59.544 141.332 59.4845 141.531 59.4597C142.015 59.3762 142.46 59.1908 142.816 58.9241C142.888 58.8589 142.978 58.8065 143.079 58.7706C143.18 58.7346 143.289 58.716 143.401 58.7158C143.651 58.7158 143.715 58.8844 143.715 59.2117C143.715 59.3109 143.799 59.3357 143.87 59.296C144.269 58.996 144.797 58.8195 145.354 58.8001C146.234 58.8001 146.568 59.0481 146.568 59.4746C146.576 59.5613 146.559 59.6483 146.519 59.7295C146.479 59.8107 146.416 59.8841 146.336 59.9446C146.255 60.0051 146.158 60.0512 146.051 60.0797C145.945 60.1081 145.832 60.1183 145.72 60.1094V60.1094Z" fill="#231815"/>
<path d="M156.832 63.5008C156.112 64.0353 155.195 64.326 154.248 64.3197C153.302 64.3134 152.39 64.0105 151.679 63.4665C151.098 62.9446 150.773 62.2461 150.773 61.519C150.773 60.792 151.098 60.0935 151.679 59.5715C152.389 59.0269 153.301 58.7231 154.247 58.716C155.194 58.7088 156.111 58.9986 156.832 59.5323C157.132 59.7927 157.37 60.1019 157.532 60.4424C157.694 60.7829 157.778 61.1479 157.778 61.5166C157.778 61.8852 157.694 62.2502 157.532 62.5907C157.37 62.9312 157.132 63.2405 156.832 63.5008V63.5008ZM155.37 59.498C155.228 59.3751 155.059 59.2783 154.874 59.2135C154.688 59.1486 154.489 59.1171 154.29 59.1208C153.88 59.1202 153.486 59.2591 153.192 59.5079C152.707 60.0924 152.446 60.7953 152.446 61.5166C152.446 62.2378 152.707 62.9407 153.192 63.5253C153.338 63.6555 153.513 63.7573 153.707 63.824C153.901 63.8907 154.109 63.9208 154.318 63.9124C154.726 63.9143 155.118 63.7751 155.409 63.5253C155.909 62.9444 156.18 62.2379 156.18 61.5117C156.18 60.7856 155.909 60.079 155.409 59.498H155.37Z" fill="#231815"/>
<path d="M163.416 61.0587L161.996 63.9524C161.965 64.0558 161.895 64.1474 161.799 64.2136C161.702 64.2798 161.583 64.317 161.461 64.3198C161.221 64.3198 161.09 64.1957 160.959 63.9376L158.707 59.639C158.519 59.2717 158.416 59.1427 158.268 59.1427H158.046C157.88 59.1427 157.778 59.0682 157.778 58.9342C157.778 58.8002 157.869 58.7158 158.046 58.7158C158.947 58.7158 159.984 58.7506 161.386 58.7506C162.789 58.7506 163.975 58.7158 164.864 58.7158C165.069 58.7158 165.155 58.7754 165.155 58.9342C165.155 59.0931 165.069 59.1427 164.864 59.1427C164.362 59.1427 164.294 59.237 164.419 59.4852L165.896 62.4634L167.332 59.4206C167.424 59.2271 167.361 59.1427 167.167 59.1427H166.911C166.734 59.1427 166.631 59.0782 166.631 58.9342C166.631 58.7903 166.717 58.7158 166.911 58.7158C167.224 58.7158 167.481 58.7506 167.846 58.7506C168.21 58.7506 168.347 58.7158 168.684 58.7158C168.889 58.7158 168.986 58.7754 168.986 58.9342C168.986 59.0931 168.889 59.1427 168.684 59.1427C168.359 59.1427 168.21 59.2519 168.079 59.5348L165.976 63.9326C165.94 64.0329 165.87 64.1216 165.775 64.187C165.681 64.2525 165.566 64.2918 165.446 64.2999C165.317 64.2942 165.194 64.2545 165.092 64.1862C164.99 64.118 164.915 64.0243 164.875 63.9177L163.416 61.0587ZM163 60.2496L162.544 59.371C162.511 59.306 162.457 59.2511 162.387 59.2139C162.318 59.1766 162.237 59.1587 162.156 59.1626H160.6C160.383 59.1626 160.338 59.2569 160.395 59.381L161.962 62.3939L163 60.2496Z" fill="#231815"/>
<path d="M177.145 64.3198C176.717 64.3198 176.249 64.2702 175.837 64.2702C175.426 64.2702 175.127 64.3198 174.756 64.3198C174.581 64.3198 174.504 64.2801 174.504 64.1016C174.504 63.923 174.581 63.9082 174.756 63.9082C175.127 63.9082 175.225 63.8189 175.225 63.318V60.5111C175.244 60.3328 175.216 60.1526 175.144 59.9877C175.071 59.8228 174.955 59.6786 174.808 59.5688C174.558 59.4026 174.255 59.3287 173.954 59.3605C173.568 59.3708 173.201 59.5194 172.924 59.7771C172.81 59.8722 172.72 59.9916 172.662 60.1259C172.604 60.2601 172.579 60.4056 172.59 60.5508V63.318C172.59 63.8139 172.672 63.9082 173.058 63.9082C173.207 63.9082 173.295 63.9528 173.295 64.1016C173.295 64.2504 173.207 64.3198 173.058 64.3198C172.631 64.3198 172.188 64.2702 171.776 64.2702C171.365 64.2702 171.015 64.3198 170.644 64.3198C170.469 64.3198 170.387 64.2801 170.387 64.1016C170.387 63.923 170.469 63.9082 170.644 63.9082C171.03 63.9082 171.159 63.8189 171.159 63.318V60.2185C171.159 60.0003 171.015 59.8763 170.762 59.8515C170.51 59.8267 170.479 59.792 170.479 59.6581C170.479 59.5242 170.562 59.4845 170.721 59.4597C171.141 59.3766 171.533 59.1924 171.859 58.9241C171.913 58.8626 171.98 58.8124 172.055 58.7766C172.13 58.7408 172.212 58.7201 172.296 58.7158C172.482 58.7158 172.59 58.8398 172.59 59.2117V59.3357C172.59 59.42 172.682 59.3952 172.713 59.3704C172.935 59.1551 173.203 58.9879 173.497 58.8801C173.792 58.7723 174.107 58.7265 174.422 58.7456C174.947 58.7417 175.464 58.8772 175.915 59.1373C176.172 59.3016 176.376 59.5326 176.504 59.8036C176.631 60.0747 176.677 60.3749 176.635 60.6698V63.3379C176.635 63.8635 176.743 63.928 177.15 63.928C177.294 63.928 177.392 63.9726 177.392 64.1214C177.392 64.2702 177.289 64.3198 177.145 64.3198Z" fill="#231815"/>
<path d="M172.886 60.2091C172.428 60.5561 172.162 60.2846 172.519 59.9124C172.816 59.6139 173.019 59.2342 173.102 58.8209C172.96 58.7966 172.824 58.7434 172.703 58.6647C172.582 58.586 172.478 58.4835 172.398 58.3633C172.331 58.2149 172.31 58.0501 172.336 57.8895C172.362 57.729 172.435 57.5796 172.545 57.4601C172.656 57.3406 172.799 57.2562 172.957 57.2173C173.115 57.1785 173.281 57.187 173.434 57.2417C173.559 57.2809 173.674 57.3453 173.773 57.4311C173.871 57.5168 173.951 57.622 174.007 57.7399C174.064 57.8579 174.095 57.9863 174.099 58.1169C174.103 58.2475 174.081 58.3776 174.033 58.4991C173.849 59.1799 173.446 59.7811 172.886 60.2091V60.2091Z" fill="#231815"/>
<path d="M192.802 57.2105C192.802 57.5603 192.756 57.8778 192.531 57.8778C192.307 57.8778 192.191 57.7487 191.955 57.372L191.718 56.9737C191.633 56.8348 191.512 56.7181 191.366 56.6344C191.22 56.5506 191.054 56.5027 190.882 56.4948C190.486 56.4373 190.085 56.4103 189.683 56.4141C189.382 56.3994 189.081 56.4453 188.801 56.5486C188.732 56.582 188.674 56.6321 188.632 56.6935C188.591 56.755 188.567 56.8258 188.565 56.8984V59.2609C188.565 59.4331 188.64 59.5138 188.801 59.5138C189.343 59.527 189.884 59.5 190.421 59.4331C190.533 59.4118 190.638 59.3674 190.729 59.3031C190.82 59.2389 190.894 59.1564 190.946 59.0618C191.228 58.5236 191.332 58.4106 191.447 58.4106C191.563 58.4106 191.672 58.572 191.672 58.755C191.672 59.1963 191.632 59.3793 191.632 59.7613C191.632 60.1434 191.672 60.3372 191.672 60.7731C191.672 60.9614 191.643 61.1229 191.447 61.1229C191.251 61.1229 191.228 60.9883 190.946 60.4717C190.888 60.3791 190.81 60.2991 190.717 60.2369C190.623 60.1747 190.517 60.1318 190.404 60.1112C189.872 60.0486 189.337 60.0198 188.801 60.0251C188.769 60.025 188.737 60.0311 188.708 60.0428C188.678 60.0546 188.652 60.0718 188.63 60.0935C188.608 60.1151 188.591 60.1407 188.579 60.1687C188.568 60.1967 188.563 60.2266 188.565 60.2565V63.0602C188.565 63.6845 188.743 63.8137 189.291 63.8137C189.533 63.8137 189.626 63.8944 189.626 64.0989C189.626 64.3034 189.533 64.3195 189.291 64.3195C188.911 64.3195 188.501 64.2657 187.729 64.2657C186.956 64.2657 186.512 64.3195 186.126 64.3195C185.89 64.3195 185.797 64.2765 185.797 64.0989C185.797 63.9213 185.918 63.8137 186.126 63.8137C186.703 63.8137 186.847 63.6845 186.847 63.0602V56.8715C186.847 56.5755 186.708 56.4141 186.126 56.4141C185.918 56.4141 185.797 56.3495 185.797 56.1504C185.797 55.9512 185.93 55.9136 186.126 55.9136C187.02 55.9136 187.965 55.962 188.847 55.962C190.104 55.962 190.865 55.9136 192.11 55.9136C192.647 55.9136 192.797 56.0965 192.797 56.6024L192.802 57.2105Z" fill="#231815"/>
<path d="M196.745 64.3195C196.339 64.3195 195.942 64.2667 195.545 64.2667C195.149 64.2667 194.796 64.3195 194.443 64.3195C194.277 64.3195 194.203 64.2667 194.203 64.0872C194.203 63.9077 194.277 63.8813 194.443 63.8813C194.811 63.8813 194.933 63.7334 194.933 63.2529V59.9792C194.933 59.7364 194.742 59.6149 194.526 59.6044C194.311 59.5938 194.257 59.5357 194.257 59.3932C194.257 59.2506 194.335 59.2083 194.487 59.1872C194.895 59.1266 195.273 58.9246 195.565 58.6117C195.684 58.4794 195.845 58.4003 196.016 58.39C196.192 58.39 196.29 58.522 196.29 58.918V63.2476C196.29 63.7757 196.383 63.876 196.78 63.876C196.917 63.876 197.005 63.9393 197.005 64.0819C197.005 64.2245 196.892 64.3195 196.745 64.3195ZM195.536 57.8461C195.305 57.849 195.083 57.7545 194.916 57.5827C194.749 57.411 194.652 57.1757 194.644 56.9274C194.635 56.7343 194.68 56.5428 194.773 56.3777C194.867 56.2125 195.004 56.0813 195.167 56.0009C195.33 55.9206 195.512 55.8949 195.689 55.927C195.865 55.9592 196.029 56.0478 196.159 56.1814C196.288 56.315 196.378 56.4874 196.416 56.6764C196.453 56.8654 196.438 57.0622 196.371 57.2415C196.304 57.4207 196.188 57.5742 196.039 57.682C195.89 57.7897 195.715 57.8469 195.536 57.8461V57.8461Z" fill="#231815"/>
<path d="M205.169 64.3198C204.742 64.3198 204.273 64.2702 203.861 64.2702C203.449 64.2702 203.15 64.3198 202.779 64.3198C202.604 64.3198 202.527 64.2801 202.527 64.1016C202.527 63.923 202.604 63.9082 202.779 63.9082C203.15 63.9082 203.248 63.8189 203.248 63.318V60.5111C203.268 60.3328 203.24 60.1526 203.167 59.9877C203.094 59.8228 202.978 59.6786 202.831 59.5688C202.581 59.403 202.277 59.3291 201.976 59.3605C201.59 59.3708 201.223 59.5194 200.946 59.7771C200.831 59.8722 200.741 59.9916 200.683 60.1259C200.625 60.2601 200.6 60.4056 200.611 60.5508V63.318C200.611 63.8139 200.693 63.9082 201.074 63.9082C201.224 63.9082 201.316 63.9528 201.316 64.1016C201.316 64.2504 201.224 64.3198 201.074 64.3198C200.647 64.3198 200.209 64.2702 199.792 64.2702C199.375 64.2702 199.035 64.3198 198.659 64.3198C198.489 64.3198 198.406 64.2801 198.406 64.1016C198.406 63.923 198.489 63.9082 198.659 63.9082C199.045 63.9082 199.174 63.8189 199.174 63.318V60.2185C199.174 60.0003 199.029 59.8763 198.777 59.8515C198.525 59.8267 198.494 59.792 198.494 59.6581C198.494 59.5242 198.571 59.4845 198.736 59.4597C199.156 59.3766 199.548 59.1924 199.874 58.9241C199.929 58.8626 199.996 58.8124 200.071 58.7766C200.146 58.7408 200.228 58.7201 200.312 58.7158C200.497 58.7158 200.606 58.8398 200.606 59.2117V59.3357C200.606 59.42 200.698 59.3952 200.729 59.3704C200.951 59.1545 201.219 58.987 201.514 58.8792C201.809 58.7714 202.124 58.7258 202.439 58.7456C202.965 58.7424 203.482 58.8779 203.933 59.1373C204.191 59.3016 204.395 59.5326 204.523 59.8036C204.65 60.0747 204.696 60.3749 204.654 60.6698V63.3379C204.654 63.8635 204.762 63.928 205.169 63.928C205.313 63.928 205.411 63.9726 205.411 64.1214C205.411 64.2702 205.313 64.3198 205.169 64.3198Z" fill="#231815"/>
<path d="M213.804 63.4137C213.792 63.492 213.757 63.5646 213.705 63.6221C213.652 63.6796 213.584 63.7194 213.509 63.7362L212.731 64.0587C212.591 64.1294 212.441 64.1763 212.286 64.1977C212.173 64.1977 212.104 64.1087 212.077 63.9586L212.023 63.5639C212.023 63.4527 211.921 63.436 211.851 63.5194C211.586 63.7933 211.267 64.0058 210.917 64.1428C210.566 64.2799 210.192 64.3383 209.818 64.3144C209.439 64.3256 209.062 64.2575 208.708 64.1142C208.355 63.9709 208.034 63.7554 207.763 63.4805C207.453 63.172 207.209 62.8002 207.045 62.3886C206.882 61.9771 206.803 61.5348 206.813 61.0898C206.802 60.6749 206.875 60.2622 207.028 59.8789C207.182 59.4955 207.412 59.1503 207.704 58.8659C208.359 58.2631 209.21 57.9394 210.086 57.9597C210.566 57.932 211.044 58.0255 211.481 58.2321C211.551 58.2766 211.647 58.2599 211.647 58.0431V55.9137C211.647 55.608 211.551 55.5412 211.229 55.5301C211.073 55.5301 210.961 55.4634 210.961 55.3244C210.961 55.1854 211.073 55.102 211.213 55.0909C211.61 55.044 211.996 54.9274 212.356 54.7462C212.495 54.6333 212.656 54.5535 212.828 54.5127C213.107 54.5127 213.139 54.6795 213.139 55.0687V63.0135C213.139 63.1636 213.177 63.2748 213.273 63.2748C213.37 63.2748 213.541 62.9856 213.692 62.9856C213.842 62.9856 213.815 63.1135 213.815 63.2025L213.804 63.4137ZM211.658 59.6109C211.658 59.1606 211.588 58.8826 211.39 58.7325C211.056 58.4832 210.647 58.365 210.236 58.3989C209.952 58.4121 209.674 58.4963 209.428 58.6444C209.181 58.7925 208.972 59.0001 208.82 59.2496C208.485 59.7922 208.324 60.4302 208.358 61.0731C208.331 61.4306 208.372 61.7901 208.48 62.1308C208.588 62.4715 208.76 62.7866 208.986 63.0579C209.313 63.3846 209.745 63.5729 210.199 63.5861C210.665 63.6041 211.119 63.4325 211.465 63.108C211.527 63.0399 211.575 62.9595 211.607 62.8716C211.638 62.7837 211.652 62.6901 211.647 62.5965L211.658 59.6109Z" fill="#231815"/>
<path d="M224.758 59.1621C224.687 59.161 224.617 59.174 224.551 59.2005C224.485 59.2269 224.425 59.2663 224.374 59.3161C224.191 59.4931 224.047 59.7068 223.953 59.943L221.093 66.4349C221.024 66.6437 220.888 66.824 220.706 66.9479C220.523 67.0718 220.305 67.1324 220.085 67.1202C219.46 67.1202 219.21 67.0034 219.21 66.4934C219.21 66.0843 219.487 65.8612 220.085 65.8612C220.415 65.8612 220.618 65.8081 220.72 65.5743L220.97 65.0431C221.003 64.9267 221.011 64.8049 220.995 64.6851C220.978 64.5654 220.937 64.4504 220.874 64.3471L218.89 59.7996C218.698 59.3374 218.559 59.1833 218.265 59.1833C218.073 59.1833 218.02 59.1143 218.02 58.9602C218.02 58.8061 218.073 58.7265 218.265 58.7265C218.671 58.7265 219.002 58.7636 219.471 58.7636C220.037 58.7636 220.373 58.7265 220.842 58.7265C221.034 58.7265 221.104 58.7636 221.104 58.9602C221.104 59.1568 221.024 59.1833 220.842 59.1833C220.661 59.1833 220.592 59.1833 220.538 59.2843C220.485 59.3852 220.511 59.4436 220.57 59.5924L221.952 62.7799L223.307 59.6721C223.338 59.6139 223.352 59.5481 223.347 59.4823C223.343 59.4165 223.32 59.3534 223.28 59.3002C223.206 59.2099 223.056 59.1727 222.795 59.1727C222.614 59.1727 222.523 59.1036 222.523 58.9496C222.523 58.7955 222.603 58.7158 222.795 58.7158C223.099 58.7158 223.419 58.753 223.809 58.753C224.198 58.753 224.427 58.7158 224.748 58.7158C224.956 58.7158 225.025 58.7636 225.025 58.9496C225.025 59.1355 224.977 59.1621 224.758 59.1621Z" fill="#231815"/>
<path d="M232.486 63.5008C231.765 64.0353 230.848 64.326 229.902 64.3197C228.955 64.3134 228.043 64.0105 227.332 63.4665C226.751 62.9446 226.426 62.2461 226.426 61.519C226.426 60.792 226.751 60.0935 227.332 59.5715C228.043 59.0269 228.954 58.7231 229.901 58.716C230.847 58.7088 231.765 58.9986 232.486 59.5323C232.785 59.7927 233.023 60.1019 233.185 60.4424C233.348 60.7829 233.431 61.1479 233.431 61.5166C233.431 61.8852 233.348 62.2502 233.185 62.5907C233.023 62.9312 232.785 63.2405 232.486 63.5008V63.5008ZM231.012 59.498C230.87 59.3751 230.701 59.2783 230.516 59.2135C230.33 59.1486 230.132 59.1171 229.932 59.1208C229.522 59.1202 229.128 59.2591 228.835 59.5079C228.349 60.0924 228.088 60.7953 228.088 61.5166C228.088 62.2378 228.349 62.9407 228.835 63.5253C228.98 63.6555 229.155 63.7573 229.349 63.824C229.543 63.8907 229.751 63.9208 229.96 63.9124C230.368 63.9143 230.761 63.7751 231.051 63.5253C231.551 62.9444 231.822 62.2379 231.822 61.5117C231.822 60.7856 231.551 60.079 231.051 59.498H231.012Z" fill="#231815"/>
<path d="M241.342 63.7091C240.928 63.8259 240.53 63.9716 240.152 64.1443C239.509 64.4476 239.219 64.3302 239.219 64.0025V63.8411C239.219 63.8069 239.22 63.7384 239.117 63.7971C238.489 64.1312 237.725 64.2838 236.962 64.2275C236.552 64.2332 236.145 64.1664 235.775 64.0323C235.404 63.8982 235.08 63.7005 234.827 63.4548C234.428 63.0684 234.293 62.638 234.293 61.6844V59.5814C234.293 59.2293 234.184 59.1364 233.759 59.1364C233.54 59.1364 233.431 59.1022 233.431 58.9457C233.431 58.7892 233.528 58.7158 233.759 58.7158C233.991 58.7158 234.344 58.7158 234.608 58.7158C234.872 58.7158 235.316 58.7158 235.611 58.7158C235.907 58.7158 236.081 58.8332 236.081 59.1022V62.1392C236.009 62.5391 236.14 62.9447 236.448 63.2738C236.601 63.3874 236.785 63.4746 236.987 63.5294C237.189 63.5843 237.404 63.6055 237.618 63.5917C237.866 63.6007 238.113 63.5687 238.343 63.4977C238.573 63.4268 238.78 63.3187 238.949 63.1809C239.149 62.9203 239.242 62.621 239.219 62.3202V59.5814C239.219 59.2293 239.097 59.1364 238.686 59.1364C238.467 59.1364 238.351 59.1022 238.351 58.9457C238.351 58.7892 238.454 58.7158 238.686 58.7158C238.917 58.7158 239.265 58.7158 239.535 58.7158C239.805 58.7158 240.236 58.7158 240.538 58.7158C240.84 58.7158 241.001 58.8332 241.001 59.1022V62.9364C241.001 63.1809 241.104 63.2738 241.303 63.2738H241.483C241.67 63.2738 241.837 63.3227 241.837 63.4352C241.837 63.5477 241.638 63.6357 241.342 63.7091Z" fill="#231815"/>
<path d="M246.596 60.1094C245.953 60.1094 245.844 59.544 245.4 59.544C245.272 59.5524 245.148 59.5866 245.042 59.6432C244.936 59.6997 244.851 59.7767 244.796 59.8664C244.627 60.1589 244.558 60.4799 244.596 60.7987V63.318C244.596 63.8139 244.693 63.9082 245.239 63.9082C245.426 63.9082 245.542 63.9677 245.542 64.1016C245.542 64.2355 245.426 64.3198 245.239 64.3198C244.706 64.3198 244.12 64.2702 243.606 64.2702C243.091 64.2702 242.622 64.3198 242.153 64.3198C241.934 64.3198 241.837 64.2702 241.837 64.1016C241.837 63.933 241.934 63.9082 242.153 63.9082C242.706 63.9082 242.841 63.7842 242.841 63.318V60.1193C242.841 59.9507 242.757 59.8515 242.583 59.8515H242.403C242.223 59.8515 242.101 59.792 242.101 59.668C242.101 59.544 242.204 59.4845 242.403 59.4597C242.888 59.3762 243.333 59.1908 243.69 58.9241C243.762 58.8587 243.851 58.8061 243.952 58.7701C244.053 58.7341 244.163 58.7156 244.275 58.7158C244.526 58.7158 244.59 58.8844 244.59 59.2117C244.59 59.3109 244.673 59.3357 244.738 59.296C245.139 58.9979 245.667 58.8218 246.223 58.8001C247.111 58.8001 247.439 59.0481 247.439 59.4746C247.448 59.561 247.432 59.6479 247.393 59.7292C247.353 59.8104 247.291 59.8839 247.211 59.9445C247.13 60.0051 247.034 60.0513 246.928 60.0798C246.821 60.1083 246.708 60.1184 246.596 60.1094V60.1094Z" fill="#231815"/>
<path d="M256.664 63.5816C256.115 64.0942 255.209 64.3199 253.997 64.3199C253.338 64.3123 252.687 64.1796 252.083 63.9294C251.744 63.7646 251.617 63.5999 251.649 63.0995L251.7 62.349C251.7 61.9402 251.847 61.7815 252.108 61.7815C252.529 61.7815 252.561 62.9043 253.059 63.4291C253.196 63.5631 253.361 63.6678 253.544 63.7362C253.727 63.8045 253.922 63.835 254.118 63.8256C254.312 63.8319 254.504 63.7942 254.679 63.7157C254.854 63.6372 255.008 63.5202 255.126 63.3741C255.318 63.1325 255.417 62.8352 255.407 62.5321C255.432 62.2998 255.375 62.0663 255.244 61.8692C255.113 61.6721 254.917 61.523 254.686 61.446L253.199 60.9212C252.818 60.8045 252.488 60.5722 252.257 60.2594C252.027 59.9466 251.91 59.5706 251.923 59.1883C251.914 58.927 251.971 58.6674 252.087 58.4309C252.204 58.1943 252.377 57.9875 252.593 57.8275C253.2 57.456 253.915 57.2787 254.635 57.3211C255.242 57.3147 255.846 57.4054 256.422 57.5896C256.558 57.6305 256.678 57.7114 256.764 57.8209C256.85 57.9304 256.897 58.0629 256.9 58.1998V58.7428C256.9 59.1333 256.9 59.2798 256.62 59.2798C256.256 59.2798 256.224 58.755 255.643 58.1693C255.518 58.055 255.369 57.9663 255.207 57.9086C255.045 57.8509 254.872 57.8254 254.699 57.8336C254.556 57.8402 254.415 57.8751 254.287 57.936C254.158 57.9969 254.044 58.0825 253.952 58.1876C253.787 58.3932 253.706 58.6489 253.723 58.9076C253.707 59.1172 253.77 59.3253 253.9 59.495C254.029 59.6648 254.217 59.7852 254.431 59.8351L255.822 60.2927C256.247 60.4001 256.621 60.6444 256.88 60.9845C257.139 61.3246 257.268 61.7396 257.245 62.1599C257.261 62.4228 257.217 62.686 257.117 62.9313C257.017 63.1767 256.862 63.3985 256.664 63.5816Z" fill="#231815"/>
<path d="M261.063 63.8265C260.902 63.9866 260.707 64.1128 260.492 64.1971C260.276 64.2814 260.045 64.322 259.812 64.3162C259.542 64.3319 259.271 64.2915 259.018 64.1977C258.766 64.1039 258.537 63.9589 258.349 63.7727C257.999 63.2901 257.854 62.6992 257.942 62.1185V58.4636C257.947 58.4247 257.941 58.3854 257.927 58.3487C257.913 58.3119 257.891 58.2788 257.861 58.2517C257.831 58.2246 257.796 58.2044 257.757 58.1924C257.718 58.1805 257.676 58.1773 257.636 58.1829C257.454 58.1829 257.248 58.1411 257.248 57.944C257.248 57.747 257.473 57.6693 257.736 57.5798C258.026 57.457 258.284 57.2745 258.492 57.0453C258.699 56.8161 258.851 56.5459 258.937 56.254C259.018 56.045 259.162 55.9136 259.337 55.9136C259.512 55.9136 259.694 56.1823 259.694 56.5108V57.3707C259.694 57.5141 259.775 57.5917 259.937 57.5917H260.913C261.138 57.5917 261.238 57.6753 261.238 57.8963C261.238 58.1173 261.138 58.2068 260.913 58.2068H259.937C259.762 58.2068 259.694 58.2964 259.694 58.4577V62.7575C259.694 63.3547 259.844 63.5279 260.231 63.5279C260.782 63.5279 260.932 63.1576 261.138 63.1158C261.345 63.074 261.451 63.1576 261.451 63.295C261.395 63.5117 261.257 63.7009 261.063 63.8265Z" fill="#231815"/>
<path d="M269.531 59.1621C269.444 59.1603 269.358 59.173 269.278 59.1994C269.198 59.2259 269.125 59.2656 269.063 59.3161C268.848 59.4951 268.678 59.7083 268.564 59.943L265.145 66.4351C265.06 66.6438 264.895 66.8237 264.676 66.9475C264.456 67.0712 264.194 67.1319 263.929 67.1204C263.18 67.1204 262.885 67.0035 262.885 66.4935C262.885 66.0844 263.218 65.8613 263.929 65.8613C264.326 65.8613 264.569 65.8082 264.697 65.5744L264.992 65.0432C265.075 64.8997 265.062 64.6925 264.876 64.3472L262.501 59.7996C262.271 59.3374 262.104 59.1833 261.752 59.1833C261.522 59.1833 261.451 59.1143 261.451 58.9602C261.451 58.8061 261.522 58.7265 261.752 58.7265C262.239 58.7265 262.636 58.7636 263.199 58.7636C263.878 58.7636 264.281 58.7265 264.844 58.7265C265.075 58.7265 265.158 58.7636 265.158 58.9602C265.158 59.1568 265.062 59.1833 264.844 59.1833C264.627 59.1833 264.543 59.1833 264.479 59.2843C264.415 59.3852 264.479 59.4437 264.511 59.5924L266.176 62.78L267.802 59.6721C267.839 59.6139 267.856 59.5481 267.851 59.4823C267.845 59.4165 267.817 59.3534 267.77 59.3002C267.68 59.2099 267.501 59.1727 267.187 59.1727C266.874 59.1727 266.855 59.1036 266.855 58.9496C266.855 58.7955 266.957 58.7158 267.187 58.7158C267.552 58.7158 267.936 58.753 268.397 58.753C268.858 58.753 269.146 58.7158 269.531 58.7158C269.78 58.7158 269.857 58.7636 269.857 58.9496C269.857 59.1355 269.812 59.1621 269.531 59.1621Z" fill="#231815"/>
<path d="M272.428 64.3196C272.029 64.3196 271.578 64.2635 271.193 64.2635C270.809 64.2635 270.448 64.3196 270.097 64.3196C269.939 64.3196 269.857 64.2747 269.857 64.0728C269.857 63.8708 269.939 63.854 270.097 63.854C270.511 63.854 270.621 63.6969 270.621 63.1863V56.2575C270.621 55.9546 270.511 55.8423 270.246 55.8031C270.073 55.8031 269.982 55.7077 269.982 55.5786C269.982 55.4496 270.059 55.3879 270.208 55.3598C270.609 55.27 270.984 55.0592 271.294 54.7483C271.472 54.5744 271.554 54.5127 271.693 54.5127C271.832 54.5127 271.952 54.6417 271.952 55.0737V63.2032C271.952 63.7642 272.053 63.8708 272.433 63.8708C272.572 63.8708 272.659 63.9213 272.659 64.0896C272.659 64.2579 272.568 64.3196 272.428 64.3196Z" fill="#231815"/>
<path d="M279.117 60.4791H275.768C275.723 60.4757 275.679 60.4928 275.645 60.5269C275.61 60.561 275.588 60.6095 275.583 60.6624C275.554 61.061 275.592 61.4625 275.695 61.8433C275.798 62.2241 275.964 62.5765 276.182 62.88C276.353 63.0782 276.555 63.2343 276.777 63.3391C276.998 63.4439 277.235 63.4955 277.473 63.4909C277.983 63.494 278.483 63.3154 278.907 62.9777C279.055 62.8254 279.23 62.7166 279.419 62.6601C279.553 62.6601 279.588 62.715 279.588 62.825C279.588 63.051 279.404 63.3259 279.02 63.668C278.488 64.1156 277.847 64.3431 277.197 64.3156C276.393 64.3615 275.604 64.038 274.994 63.4115C274.694 63.083 274.456 62.6823 274.295 62.2357C274.134 61.7892 274.055 61.3071 274.062 60.8213C274.047 60.3416 274.118 59.8635 274.27 59.419C274.421 58.9745 274.651 58.5737 274.943 58.2433C275.549 57.5992 276.345 57.2676 277.156 57.3208C277.843 57.2709 278.521 57.5401 279.046 58.0722C279.246 58.2898 279.404 58.5564 279.51 58.8537C279.616 59.1509 279.668 59.472 279.66 59.7949C279.669 59.8843 279.662 59.975 279.638 60.0605C279.615 60.146 279.576 60.2242 279.524 60.2896C279.472 60.355 279.409 60.4058 279.338 60.4386C279.268 60.4714 279.193 60.4852 279.117 60.4791ZM277.873 58.341C277.779 58.1854 277.655 58.0599 277.511 57.9756C277.367 57.8914 277.208 57.8511 277.048 57.8584C276.862 57.8566 276.678 57.9045 276.51 57.9985C276.341 58.0926 276.193 58.2305 276.075 58.4021C275.829 58.7708 275.678 59.2163 275.64 59.685C275.64 59.8011 275.681 59.8988 275.824 59.8988H277.673C277.99 59.8988 278.108 59.7889 278.108 59.5017C278.127 59.0964 278.047 58.6931 277.878 58.341H277.873Z" fill="#231815"/>
</svg>
