<svg width="27" height="27" viewBox="0 0 27 27" fill="none" xmlns="http://www.w3.org/2000/svg">
<path d="M13.5 0.583344C6.37001 0.583344 0.583344 6.37001 0.583344 13.5C0.583344 20.63 6.37001 26.4167 13.5 26.4167C20.63 26.4167 26.4167 20.63 26.4167 13.5C26.4167 6.37001 20.63 0.583344 13.5 0.583344ZM13.5 4.45834C15.6442 4.45834 17.375 6.18918 17.375 8.33334C17.375 10.4775 15.6442 12.2083 13.5 12.2083C11.3558 12.2083 9.62501 10.4775 9.62501 8.33334C9.62501 6.18918 11.3558 4.45834 13.5 4.45834ZM13.5 22.8C10.2708 22.8 7.41626 21.1467 5.75001 18.6408C5.78876 16.0704 10.9167 14.6625 13.5 14.6625C16.0704 14.6625 21.2113 16.0704 21.25 18.6408C19.5838 21.1467 16.7292 22.8 13.5 22.8Z" fill="#C4C4C4"/>
</svg>
